<svg xmlns="http://www.w3.org/2000/svg" width="256" height="256" fill="none" viewBox="0 0 256 256"><circle cx="128" cy="128" r="128" fill="#6CF9D8"/><path fill="#2D2E32" fill-rule="evenodd" d="M182.864 59L196.736 72.8719L150.377 119.23C147.934 112.866 142.869 107.802 136.505 105.358L182.864 59ZM119.23 105.358L72.8719 59L59 72.8719L105.358 119.23C107.801 112.866 112.866 107.802 119.23 105.358ZM105.358 136.506L59 182.863L72.8719 196.735L119.23 150.378C112.866 147.934 107.801 142.869 105.358 136.506ZM136.505 150.378L182.864 196.735L196.736 182.863L150.377 136.506C147.934 142.869 142.869 147.934 136.505 150.378Z" clip-rule="evenodd"/></svg>