<svg xmlns="http://www.w3.org/2000/svg" width="256" height="256" fill="none" viewBox="0 0 256 256"><g clip-path="url(#clip0_2013_52)"><path fill="#FFE81C" d="M256 128C256 57.3075 198.692 0 128 0C57.3075 0 0 57.3075 0 128C0 198.692 57.3075 256 128 256C198.692 256 256 198.692 256 128Z"/><path fill="#1E1E1E" fill-opacity=".95" d="M118.131 31.3103C123.943 28.0163 131.057 28.0163 136.869 31.3103L172.087 51.2722L206.984 71.7914C212.743 75.1774 216.3 81.3388 216.353 88.0189L216.675 128.5L216.353 168.981C216.3 175.661 212.743 181.823 206.984 185.209L172.087 205.728L136.869 225.69C131.057 228.984 123.943 228.984 118.131 225.69L82.9125 205.728L48.0157 185.209C42.2572 181.823 38.6999 175.661 38.6468 168.981L38.325 128.5L38.6468 88.0189C38.6999 81.3388 42.2572 75.1774 48.0157 71.7914L82.9125 51.2722L118.131 31.3103Z"/><path fill="#332E06" d="M127.98 75.1924L127.272 77.593V147.247L127.98 147.952L160.338 128.84L127.98 75.1924Z"/><path fill="#8C800F" d="M127.98 75.1924L95.6211 128.84L127.98 147.952V114.144V75.1924Z"/><path fill="#332E06" d="M127.98 154.073L127.581 154.559V179.371L127.98 180.534L160.358 134.972L127.98 154.073Z"/><path fill="#8C800F" d="M127.98 180.534V154.073L95.6211 134.972L127.98 180.534Z"/><path fill="#141302" d="M127.98 147.952L160.339 128.84L127.98 114.144V147.952Z"/><path fill="#383306" d="M95.6211 128.84L127.98 147.952V114.144L95.6211 128.84Z"/></g><defs><clipPath id="clip0_2013_52"><rect width="256" height="256" fill="#fff"/></clipPath></defs></svg>