<svg xmlns="http://www.w3.org/2000/svg" width="256" height="256" fill="none" viewBox="0 0 256 256"><g clip-path="url(#clip0_741_46)"><path fill="#EA6B24" d="M128 256C198.692 256 256 198.692 256 128C256 57.3076 198.692 0 128 0C57.3076 0 0 57.3076 0 128C0 198.692 57.3076 256 128 256Z"/><path style="mix-blend-mode:overlay" fill="url(#paint0_linear_741_46)" fill-opacity=".1" d="M128 256C198.692 256 256 198.692 256 128C256 57.3076 198.692 0 128 0C57.3076 0 0 57.3076 0 128C0 198.692 57.3076 256 128 256Z"/><path fill="#E6E6E6" d="M165 219H141.129L128.017 59.8587L114.905 219H91L112.644 32H143.381L165 219Z"/></g><defs><linearGradient id="paint0_linear_741_46" x1="256.156" x2="0" y1="0" y2="256.156" gradientUnits="userSpaceOnUse"><stop stop-color="#fff"/><stop offset="1" stop-opacity="0"/></linearGradient><clipPath id="clip0_741_46"><rect width="256" height="256" fill="#fff"/></clipPath></defs></svg>