<svg xmlns="http://www.w3.org/2000/svg" width="256" height="256" fill="none" viewBox="0 0 256 256"><g clip-path="url(#clip0_741_46)"><path fill="#000" d="M256 128C256 198.692 198.692 256 128 256C57.3075 256 0 198.692 0 128C0 57.3075 57.3075 0 128 0C198.692 0 256 57.3075 256 128Z"/><path fill="#EE2F51" d="M47 81.0556L128.5 128.111L210 81.0556L128.5 34L47 81.0556Z"/><path fill="#C32942" d="M47 81.0557L128.5 128.111V222.223L47 175.167V81.0557Z"/><path fill="#7D1729" d="M210 81.0557L128.5 128.111V222.223L210 175.167V81.0557Z"/><path fill="#EE2F51" d="M74.1831 159.482L101.347 143.797V175.167L74.1831 159.482Z"/><path fill="#7D1729" d="M101.337 143.797L74.1635 128.111V159.482L101.337 143.797Z"/><path fill="#EE2F51" d="M182.817 159.482L155.653 143.797V175.167L182.817 159.482Z"/><path fill="#C32942" d="M155.663 143.797L182.837 128.111V159.482L155.663 143.797Z"/><path fill="#7D1729" d="M101.336 81.0556L128.5 65.3704V96.7408L101.336 81.0556Z"/><path fill="#C32942" d="M155.663 81.0556L128.5 65.3704V96.7408L155.663 81.0556Z"/></g><defs><clipPath id="clip0_741_46"><rect width="256" height="256" fill="#fff"/></clipPath></defs></svg>