<svg xmlns="http://www.w3.org/2000/svg" xmlns:xlink="http://www.w3.org/1999/xlink" style="enable-background:new 0 0 36 36" id="Layer_1" x="0" y="0" version="1.1" viewBox="0 0 36 36" xml:space="preserve"><style type="text/css"/><g><defs><circle id="SVGID_1_" cx="18" cy="18" r="18"/></defs><clipPath id="SVGID_00000160163445380914049130000011338112663239149733_"><use style="overflow:visible" xlink:href="#SVGID_1_"/></clipPath><rect width="36" height="36" style="clip-path:url(#SVGID_00000160163445380914049130000011338112663239149733_);fill:#fcfc05"/><path d="M18,22 c2.2,0,4-1.8,4-4s-1.8-4-4-4s-4,1.8-4,4S15.8,22,18,22z" style="clip-path:url(#SVGID_00000160163445380914049130000011338112663239149733_);fill-opacity:.8"/><path d="M12.3,12.3 c3.1-3.1,8.2-3.1,11.3,0c1.4,1.4,2.2,3.3,2.3,5.2l3.4-3.4C27.8,9.4,23.3,6,18,6c-3.1,0-5.9,1.2-8,3.1V6H6v12c0,0.2,0,0.4,0,0.7 L12.3,12.3C12.3,12.4,12.3,12.4,12.3,12.3z" style="clip-path:url(#SVGID_00000160163445380914049130000011338112663239149733_);fill-opacity:.8"/><path d="M30,17.3l-6.3,6.3 c0,0,0,0,0,0c-3.1,3.1-8.2,3.1-11.3,0c-1.4-1.4-2.2-3.3-2.3-5.2l-3.4,3.4C8.2,26.6,12.7,30,18,30c6.6,0,12-5.4,12-12 C30,17.8,30,17.6,30,17.3z" style="clip-path:url(#SVGID_00000160163445380914049130000011338112663239149733_);fill-opacity:.8"/></g></svg>