<svg xmlns="http://www.w3.org/2000/svg" width="256" height="256" fill="none" viewBox="0 0 256 256"><g clip-path="url(#clip0_1492_159)"><ellipse cx="128.5" cy="128" fill="#1E1E1E" rx="115.5" ry="113"/><mask id="mask0_1492_159" width="256" height="256" x="0" y="0" maskUnits="userSpaceOnUse" style="mask-type:luminance"><path fill="#fff" d="M256 0H0V256H256V0Z"/></mask><g mask="url(#mask0_1492_159)"><path fill="url(#paint0_linear_1492_159)" d="M127.425 1.56055C57.8726 1.56055 1.71997 57.7132 1.71997 127.265C1.71997 196.818 57.8726 252.97 127.425 252.97C196.978 252.97 253.13 196.818 253.13 127.265C253.13 57.7132 196.978 1.56055 127.425 1.56055ZM127.425 194.902C90.4154 194.902 59.7869 164.913 59.7869 127.265C59.7869 90.256 89.7774 59.6273 127.425 59.6273C164.434 59.6273 195.062 89.6178 195.062 127.265C195.062 164.274 164.434 194.902 127.425 194.902Z"/><path fill="url(#paint1_linear_1492_159)" d="M253.13 127.265C253.13 126.627 253.13 125.989 253.13 125.351C252.493 95.3606 241.645 67.9223 223.777 46.8652C205.273 68.5605 194.425 96.6367 194.425 127.265C194.425 157.893 205.273 185.971 223.777 207.666C241.645 185.971 252.493 159.17 253.13 129.179C253.13 128.541 253.13 127.903 253.13 127.265Z"/><path fill="url(#paint2_linear_1492_159)" d="M31.0724 46.8652C13.2058 67.9223 2.35812 95.3606 1.71997 125.351C1.71997 125.989 1.71997 126.627 1.71997 127.265C1.71997 127.903 1.71997 128.541 1.71997 129.179C2.35812 159.17 13.2058 186.608 31.0724 207.666C49.5774 185.971 60.4249 157.893 60.4249 127.265C60.4249 96.6367 48.9392 68.5605 31.0724 46.8652Z"/><path fill="url(#paint3_linear_1492_159)" d="M207.825 30.9129C186.767 13.0462 159.33 2.1987 129.34 1.56055C128.702 1.56055 128.064 1.56055 127.426 1.56055C126.788 1.56055 126.15 1.56055 125.511 1.56055C95.5205 2.1987 68.0823 13.0462 47.0251 30.9129C68.7204 49.4178 96.7966 60.2655 127.426 60.2655C158.054 59.6273 186.13 48.7797 207.825 30.9129Z"/><path fill="url(#paint4_linear_1492_159)" d="M47.0249 224.256C68.7202 242.122 96.7964 253.608 127.425 253.608C158.053 253.608 186.13 242.761 207.825 224.256C186.13 206.389 158.053 194.902 127.425 194.902C96.7964 194.902 68.7202 205.752 47.0249 224.256Z"/><path fill="url(#paint5_linear_1492_159)" d="M127.425 158.533C144.693 158.533 158.692 144.533 158.692 127.266C158.692 109.997 144.693 95.999 127.425 95.999C110.157 95.999 96.1584 109.997 96.1584 127.266C96.1584 144.533 110.157 158.533 127.425 158.533Z"/></g></g><defs><linearGradient id="paint0_linear_1492_159" x1="70.332" x2="181.512" y1="-76.828" y2="320.568" gradientUnits="userSpaceOnUse"><stop offset=".14" stop-color="#FF78F1"/><stop offset=".299" stop-color="#C199F2"/><stop offset=".489" stop-color="#7DBDF4"/><stop offset=".661" stop-color="#47D9F5"/><stop offset=".809" stop-color="#20EEF6"/><stop offset=".927" stop-color="#09FAF7"/><stop offset="1" stop-color="#00FFF7"/></linearGradient><linearGradient id="paint1_linear_1492_159" x1="223.961" x2="223.961" y1="46.314" y2="207.908" gradientUnits="userSpaceOnUse"><stop stop-color="#8172E8"/><stop offset="1" stop-color="#00C4EF"/></linearGradient><linearGradient id="paint2_linear_1492_159" x1="30.91" x2="30.91" y1="47.178" y2="201.008" gradientUnits="userSpaceOnUse"><stop stop-color="#8172E8"/><stop offset="1" stop-color="#00C4EF"/></linearGradient><linearGradient id="paint3_linear_1492_159" x1="204.681" x2="80.917" y1="30.75" y2="30.75" gradientUnits="userSpaceOnUse"><stop stop-color="#008DEB"/><stop offset="1" stop-color="#956DE7"/></linearGradient><linearGradient id="paint4_linear_1492_159" x1="47.081" x2="207.789" y1="223.948" y2="223.948" gradientUnits="userSpaceOnUse"><stop stop-color="#009BEC"/><stop offset="1" stop-color="#00CAEF"/></linearGradient><linearGradient id="paint5_linear_1492_159" x1="127.435" x2="127.435" y1="196.703" y2="107.609" gradientUnits="userSpaceOnUse"><stop stop-color="#FF78F1"/><stop offset="1" stop-color="#00FFF7"/></linearGradient><clipPath id="clip0_1492_159"><rect width="256" height="256" fill="#fff"/></clipPath></defs></svg>