<svg xmlns="http://www.w3.org/2000/svg" width="256" height="256" fill="none" viewBox="0 0 256 256"><g clip-path="url(#clip0_2069_1166)"><path fill="#1B38DA" d="M128 256C198.692 256 256 198.692 256 128C256 57.3076 198.692 0 128 0C57.3076 0 0 57.3076 0 128C0 198.692 57.3076 256 128 256Z"/><path fill="#7E9DEC" d="M102.798 144.92H81.585L100.016 155.4H120.533L102.798 144.92Z"/><path fill="#7E9DEC" d="M100.016 141.427H75.6739L64.1982 119.071H87.4973L100.016 141.427Z"/><path fill="#7E9DEC" d="M86.8014 115.578H63.1547L61.7637 91.1245H86.8014V115.578Z"/><path fill="#7E9DEC" d="M87.4966 87.6314H63.1543L75.6731 66.6719H100.711L87.4966 87.6314Z"/><path fill="#7E9DEC" d="M99.3202 52L81.2373 63.1785H103.145L120.185 52H99.3202Z"/><path fill="#7E9DEC" d="M155.655 101.604H134.79L152.178 112.084H173.737L155.655 101.604Z"/><path fill="#7E9DEC" d="M179.302 115.578H155.655L168.174 136.537L190.43 137.934L179.302 115.578Z"/><path fill="#7E9DEC" d="M191.821 142.126L168.174 140.03V165.182H192.516L191.821 142.126Z"/><path fill="#7E9DEC" d="M191.821 168.675H167.479L153.917 189.634H179.303L191.821 168.675Z"/><path fill="#FFFEFB" d="M101.567 114.443V135.374L90.3633 117.932V95.9541L101.567 114.443Z"/><path fill="#FFFEFB" d="M91.0635 89.3262L102.967 110.257L115.571 89.3262L104.368 68.0469L91.0635 89.3262Z"/><path fill="#FFFEFB" d="M107.168 65.6049L118.372 86.8843L139.729 74.326L127.124 52.6978L107.168 65.6049Z"/><path fill="#FFFEFB" d="M143.58 72.9306L131.326 52H155.134L168.088 74.326L143.58 72.9306Z"/><path fill="#FFFEFB" d="M172.639 75.0237L161.436 55.1396L179.991 65.6049L190.495 84.4424L172.639 75.0237Z"/><path fill="#FFFEFB" d="M118.372 90.7215L108.568 108.513L126.774 98.396L136.578 80.605L118.372 90.7215Z"/><path fill="#FFFEFB" d="M143.58 76.7681L131.676 97.3497H156.184L168.088 78.1634L143.58 76.7681Z"/><path fill="#FFFEFB" d="M171.939 78.5122L159.686 98.3963L180.342 110.606L193.295 90.024L171.939 78.5122Z"/><path fill="#FFFEFB" d="M195.746 92.8145L183.842 113.396L194.695 136.071L208 113.396L195.746 92.8145Z"/><path fill="#FFFEFB" d="M208 121.42L196.446 140.257L196.797 160.141L208 142.35V121.42Z"/><path fill="#FFFEFB" d="M154.433 142.001V120.374L165.286 138.513L164.936 159.792L154.433 142.001Z"/><path fill="#FFFEFB" d="M164.587 167.118L152.683 146.188L139.729 167.118L151.283 187.351L164.587 167.118Z"/><path fill="#FFFEFB" d="M136.578 165.723L119.422 175.49L129.575 157.699L146.731 148.281L136.578 165.723Z"/><path fill="#FFFEFB" d="M148.131 190.491L136.578 169.909L116.622 182.118L129.226 203.048L148.131 190.491Z"/><path fill="#FFFEFB" d="M151.282 193.281L135.178 203.398H156.884L173.69 193.281H151.282Z"/><path fill="#FFFEFB" d="M124.674 158.746L112.42 178.979L87.9121 177.933L100.516 159.094L124.674 158.746Z"/><path fill="#FFFEFB" d="M112.42 182.816L87.9121 181.77L100.166 203.397H124.674L112.42 182.816Z"/><path fill="#FFFEFB" d="M83.0108 181.072L93.8642 200.258L76.0086 189.793L65.1553 172.002L83.0108 181.072Z"/><path fill="#FFFEFB" d="M96.6651 158.048L83.7111 176.885L63.0547 166.072L75.3086 145.49L96.6651 158.048Z"/><path fill="#FFFEFB" d="M72.1575 142.699L60.2539 162.932L48 142.699L60.954 121.071L72.1575 142.699Z"/><path fill="#FFFEFB" d="M59.2035 116.884L48 135.025V113.745L58.5033 95.9541L59.2035 116.884Z"/></g><defs><clipPath id="clip0_2069_1166"><rect width="256" height="256" fill="#fff"/></clipPath></defs></svg>