<svg xmlns="http://www.w3.org/2000/svg" width="256" height="256" fill="none" viewBox="0 0 256 256"><g clip-path="url(#clip0_2092_10527)"><mask id="mask0_2092_10527" width="256" height="256" x="0" y="0" maskUnits="userSpaceOnUse" style="mask-type:luminance"><path fill="#fff" d="M256 0H0V256H256V0Z"/></mask><g mask="url(#mask0_2092_10527)"><path fill="#C42D15" fill-rule="evenodd" d="M128.001 -0.00146484C198.702 -0.00146484 256.002 57.2982 256.002 127.999C256.002 198.701 198.702 256 128.001 256C57.2997 256 0 198.701 0 127.999C0 57.2982 57.2997 -0.00146484 128.001 -0.00146484Z" clip-rule="evenodd"/></g><path fill="#A5ACAC" d="M128.416 31L32.9199 109.724V197L128.416 109.724L223.949 197V109.724L128.416 31Z"/><path fill="#F9FEFF" d="M86.3698 148.151L128.416 31L32.9199 109.724L86.3698 148.151Z"/><path fill="#F9FEFF" d="M128.416 31L170.499 148.151L223.949 109.724L128.416 31Z"/></g><defs><clipPath id="clip0_2092_10527"><rect width="256" height="256" fill="#fff"/></clipPath></defs></svg>