<svg xmlns="http://www.w3.org/2000/svg" width="256" height="256" fill="none" viewBox="0 0 256 256"><g clip-path="url(#clip0_2370_461)"><path fill="#394342" d="M128 256C198.692 256 256 198.692 256 128C256 57.3076 198.692 0 128 0C57.3076 0 0 57.3076 0 128C0 198.692 57.3076 256 128 256Z"/><path fill="#B7C4C4" d="M127.977 37L126.817 40.9301V154.963L127.977 156.117L181.045 124.829L127.977 37Z"/><path fill="#FCFEFF" d="M127.978 37L74.9092 124.829L127.978 156.117V100.769V37Z"/><path fill="#B6C3C3" d="M155.654 170.272L155 171.067V211.687L155.654 213.591L208.753 139L155.654 170.272Z"/><path fill="#FCFEFF" d="M101.069 213.661V170.342L48 139.07L101.069 213.661Z"/><path fill="#869292" d="M127.978 156.117L181.045 124.828L127.978 100.769V156.117Z"/><path fill="#B7C4C4" d="M74.9092 124.828L127.978 156.117V100.769L74.9092 124.828Z"/></g><defs><clipPath id="clip0_2370_461"><rect width="256" height="256" fill="#fff"/></clipPath></defs></svg>