<svg xmlns="http://www.w3.org/2000/svg" width="256" height="256" fill="none" viewBox="0 0 256 256"><g clip-path="url(#clip0_2004_1502)"><path fill="#2563EB" d="M256 128C256 57.3076 198.692 0 128 0C57.3076 0 0 57.3076 0 128C0 198.692 57.3076 256 128 256C198.692 256 256 198.692 256 128Z"/><path fill="#fff" d="M215.04 128L171.52 203.379H84.48L40.96 128L84.48 52.6211H171.52L215.04 128Z"/><path fill="#2563EB" d="M66.5156 128.926L95.706 179.478H96.5321H159.319L171.905 155.798L112.055 155.739L103.102 142.085H180.897L188.51 128.926L180.897 115.747H103.102L112.055 102.093H171.925L159.359 78.4326H95.6666L66.5156 128.926Z"/></g><defs><clipPath id="clip0_2004_1502"><rect width="256" height="256" fill="#fff"/></clipPath></defs></svg>