<svg xmlns="http://www.w3.org/2000/svg" width="256" height="256" fill="none" viewBox="0 0 256 256"><g clip-path="url(#clip0_2571_3802)"><path fill="#080B1B" d="M256 128C256 198.693 198.693 256 128 256C57.3075 256 0 198.693 0 128C0 57.3072 57.3075 0 128 0C198.693 0 256 57.3072 256 128Z"/><g filter="url(#filter0_di_2571_3802)"><path fill="#6B6B6B" d="M127.987 40L126.762 44.1626V164.942L127.987 166.163L183.966 133.024L127.987 40Z"/><path fill="#A2A2A2" d="M127.983 40L72 133.024L127.983 166.163V107.542V40Z"/><path fill="#4F4E4E" d="M127.983 176.779L127.293 177.621V220.645L127.983 222.662L183.998 143.656L127.983 176.779Z"/><path fill="#A2A2A2" d="M127.983 222.662V176.779L72 143.656L127.983 222.662Z"/><path fill="#797979" d="M127.984 166.169L183.963 133.03L127.984 107.547V166.169Z"/><path fill="#D4D4D4" d="M72 133.03L127.983 166.169V107.547L72 133.03Z"/><g style="mix-blend-mode:overlay"><path fill="#ACE730" d="M127.985 40L126.762 44.1626V164.942L127.985 166.163L183.966 133.024L127.985 40Z"/><path fill="#ACE730" d="M127.982 40L72 133.024L127.982 166.163V107.542V40Z"/><path fill="#ACE730" d="M127.983 176.779L127.293 177.621V220.645L127.983 222.662L183.998 143.656L127.983 176.779Z"/><path fill="#ACE730" d="M127.983 222.662V176.779L72 143.656L127.983 222.662Z"/><path fill="#ACE730" d="M127.984 166.169L183.965 133.03L127.984 107.547V166.169Z"/><path fill="#ACE730" d="M72 133.03L127.982 166.169V107.547L72 133.03Z"/></g></g></g><defs><filter id="filter0_di_2571_3802" width="128.157" height="198.822" x="63.92" y="31.92" color-interpolation-filters="sRGB" filterUnits="userSpaceOnUse"><feFlood flood-opacity="0" result="BackgroundImageFix"/><feColorMatrix in="SourceAlpha" result="hardAlpha" type="matrix" values="0 0 0 0 0 0 0 0 0 0 0 0 0 0 0 0 0 0 127 0"/><feOffset/><feGaussianBlur stdDeviation="4.04"/><feComposite in2="hardAlpha" operator="out"/><feColorMatrix type="matrix" values="0 0 0 0 0.67451 0 0 0 0 0.905882 0 0 0 0 0.188235 0 0 0 1 0"/><feBlend in2="BackgroundImageFix" mode="normal" result="effect1_dropShadow_2571_3802"/><feBlend in="SourceGraphic" in2="effect1_dropShadow_2571_3802" mode="normal" result="shape"/><feColorMatrix in="SourceAlpha" result="hardAlpha" type="matrix" values="0 0 0 0 0 0 0 0 0 0 0 0 0 0 0 0 0 0 127 0"/><feOffset/><feGaussianBlur stdDeviation="1.959"/><feComposite in2="hardAlpha" k2="-1" k3="1" operator="arithmetic"/><feColorMatrix type="matrix" values="0 0 0 0 0.67451 0 0 0 0 0.905882 0 0 0 0 0.188235 0 0 0 0.5 0"/><feBlend in2="shape" mode="normal" result="effect2_innerShadow_2571_3802"/></filter><clipPath id="clip0_2571_3802"><rect width="256" height="256" fill="#fff"/></clipPath></defs></svg>