<svg xmlns="http://www.w3.org/2000/svg" width="256" height="256" fill="none" viewBox="0 0 256 256"><g clip-path="url(#clip0_1619_90)"><mask id="mask0_1619_90" width="256" height="256" x="0" y="0" maskUnits="userSpaceOnUse" style="mask-type:luminance"><path fill="#fff" d="M256 0H0V256H256V0Z"/></mask><g mask="url(#mask0_1619_90)"><path fill="url(#paint0_radial_1619_90)" d="M128.002 256.004C198.695 256.004 256.004 198.695 256.004 128.002C256.004 57.3086 198.695 0 128.002 0C57.3086 0 0 57.3086 0 128.002C0 198.695 57.3086 256.004 128.002 256.004Z"/><path fill="#fff" fill-opacity=".4" d="M128.002 256.004C198.695 256.004 256.004 198.695 256.004 128.002C256.004 57.3086 198.695 0 128.002 0C57.3086 0 0 57.3086 0 128.002C0 198.695 57.3086 256.004 128.002 256.004Z"/><path fill="#000" d="M127.996 235.516C68.7103 235.516 20.481 187.286 20.481 128.001C20.481 68.7147 68.7145 20.4854 127.996 20.4854C187.277 20.4854 235.511 68.7147 235.511 128.001C235.511 187.286 187.282 235.516 127.996 235.516ZM127.996 29.2431C73.5442 29.2431 29.2429 73.5444 29.2429 128.001C29.2429 182.456 73.5442 226.754 127.996 226.754C182.447 226.754 226.753 182.452 226.753 128.001C226.753 73.5486 182.452 29.2431 127.996 29.2431Z"/><path fill="#000" d="M203.293 154.718C203.293 148.975 203.297 143.175 203.297 137.427C198.366 149.833 190.243 158.511 176.688 162.749C176.688 153.605 176.688 145.173 176.688 136.733C172.625 152.306 158.039 163.832 140.658 163.832C123.278 163.832 108.692 152.302 104.628 136.733V137.44V163.955C101.005 164.09 78.6766 163.078 68.6955 137.792V160.39C57.6942 154.663 51.4 146.354 47.7893 135.684V150.024C36.8304 142.409 36.187 115.166 47.7893 105.702V120.216C51.0106 111.818 55.2773 104.419 62.5875 99.111C64.1748 97.9599 66.0077 96.7747 68.6785 95.5301C68.6785 104.224 68.6828 111.489 68.6828 119.209C77.5719 95.3609 95.8451 91.7714 104.628 92.0847V119.137C108.688 103.564 123.278 92.0381 140.658 92.0381C158.039 92.0381 172.625 103.564 176.685 119.137C176.685 110.659 176.685 102.176 176.685 93.0836C190.306 97.418 198.594 106.07 203.293 118.921C203.293 113.037 203.293 107.175 203.293 100.195C212.228 107.645 216.216 116.309 216.638 126.494C217.113 137.812 212.694 147.349 203.293 154.718Z"/></g></g><defs><radialGradient id="paint0_radial_1619_90" cx="0" cy="0" r="1" gradientTransform="translate(128.002 128.002) rotate(119.592) scale(178.851)" gradientUnits="userSpaceOnUse"><stop stop-color="#F3B8D8"/><stop offset=".139" stop-color="#B793E9"/><stop offset=".239" stop-color="#9FD4F3"/><stop offset=".375" stop-color="#FFD2C4"/><stop offset=".478" stop-color="#FBF3F3"/><stop offset=".558" stop-color="#D9ABDF"/><stop offset=".624" stop-color="#AF9CE3"/><stop offset=".72" stop-color="#AAE4E1"/><stop offset=".83" stop-color="#C6EAD0"/><stop offset=".913" stop-color="#fff"/><stop offset="1" stop-color="#FDB5E4"/></radialGradient><clipPath id="clip0_1619_90"><rect width="256" height="256" fill="#fff"/></clipPath></defs></svg>