<svg xmlns="http://www.w3.org/2000/svg" width="256" height="256" fill="none" viewBox="0 0 256 256"><g clip-path="url(#clip0_2553_936)"><path fill="#fff" d="M256 128C256 57.3075 198.692 0 128 0C57.3075 0 0 57.3075 0 128C0 198.692 57.3075 256 128 256C198.692 256 256 198.692 256 128Z"/><path fill="#6B4644" d="M127.553 105.554V60.2385L101.389 45.1333V90.449L127.553 105.554Z"/><path fill="#523E3D" d="M127.511 105.554V60.2385L153.675 45.1333V90.449L127.511 105.554Z"/><path fill="#836866" d="M153.717 45.1331L127.553 60.2383L101.389 45.1331L127.553 30.0278L153.717 45.1331Z"/><path fill="#C89992" d="M75.4327 195.714V150.398L49.2686 135.293V180.609L75.4327 195.714Z"/><path fill="#543D3D" d="M75.3828 195.714V150.398L101.547 135.293V180.609L75.3828 195.714Z"/><path fill="#473232" d="M101.597 135.293L75.4327 150.398L49.2686 135.293L75.4327 120.172L101.597 135.293Z"/><path fill="#CD9991" d="M75.3848 135.764V90.4487L49.2207 75.3435V120.659L75.3848 135.764Z"/><path fill="#523E3F" d="M75.3438 135.764V90.4487L101.523 75.3435V120.659L75.3438 135.764Z"/><path fill="#836764" d="M101.549 75.3434L75.3848 90.4488L49.2207 75.3434L75.3848 60.2383L101.549 75.3434Z"/><path fill="#856A67" d="M205.836 75.3434L179.672 90.4488L153.508 75.3434L179.672 60.2383L205.836 75.3434Z"/><path fill="#D29B91" d="M127.553 225.924V180.609L101.389 165.503V210.819L127.553 225.924Z"/><path fill="#715655" d="M127.511 225.924V180.609L153.675 165.503V210.819L127.511 225.924Z"/><path fill="#483435" d="M153.717 165.503L127.553 180.608L101.389 165.503L127.553 150.398L153.717 165.503Z"/><path fill="#6B4644" d="M179.836 197.174V151.858L153.672 136.738V182.069L179.836 197.174Z"/><path fill="#6E5453" d="M179.806 197.174V151.858L205.97 136.738V182.069L179.806 197.174Z"/><path fill="#3C2F30" d="M206 136.738L179.836 151.859L153.672 136.738L179.836 121.633L206 136.738Z"/><path fill="#825854" d="M179.672 135.764V90.4487L153.508 75.3435V120.659L179.672 135.764Z"/><path fill="#705755" d="M179.631 135.764V90.4487L205.795 75.3435V120.659L179.631 135.764Z"/><path fill="#7C6362" d="M153.756 105.494L127.592 120.599L101.428 105.494L127.592 90.3884L153.756 105.494Z"/><path fill="#ECAA9D" d="M127.592 165.896V120.565L101.428 105.46V150.791L127.592 165.896Z"/><path fill="#745857" d="M127.591 165.899V120.568L153.755 105.463V150.794L127.591 165.899Z"/></g><defs><clipPath id="clip0_2553_936"><rect width="256" height="256" fill="#fff"/></clipPath></defs></svg>