<svg xmlns="http://www.w3.org/2000/svg" width="256" height="256" fill="none" viewBox="0 0 256 256"><g clip-path="url(#clip0_741_46)"><path fill="#0D0D0E" d="M256 128C256 198.692 198.692 256 128 256C57.3075 256 0 198.692 0 128C0 57.3075 57.3075 0 128 0C198.692 0 256 57.3075 256 128Z"/><mask id="mask0_741_46" width="218" height="218" x="19" y="19" maskUnits="userSpaceOnUse" style="mask-type:luminance"><path fill="#fff" d="M237 19H19V237H237V19Z"/></mask><g mask="url(#mask0_741_46)"><mask id="mask1_741_46" width="218" height="218" x="19" y="19" maskUnits="userSpaceOnUse" style="mask-type:alpha"><path fill="#D9D9D9" d="M128 19L161.37 47.4376L205.075 50.9254L208.562 94.63L237 128L208.562 161.37L205.075 205.075L161.37 208.562L128 237L94.63 208.562L50.9254 205.075L47.4376 161.37L19 128L47.4376 94.63L50.9254 50.9254L94.63 47.4376L128 19Z"/></mask><g mask="url(#mask1_741_46)"><path fill="#0D0D0E" d="M248.938 -10.873H10.0343V269.838H248.938V-10.873Z"/><g filter="url(#filter0_f_741_46)"><path fill="#002E48" d="M1425.48 -884.663C1046.96 -441.665 -21.7383 391.337 -1268.32 179.353C-839.634 614.242 299.295 1010.28 1425.48 -884.663Z"/></g><g filter="url(#filter1_f_741_46)"><path fill="#0072A3" d="M1150.4 -669.443C843.413 -310.133 -23.3192 365.485 -1034.38 193.483C-686.666 546.251 237.083 867.541 1150.4 -669.443Z"/></g><g filter="url(#filter2_f_741_46)"><path fill="#00C2CE" d="M1150.4 -669.441C843.418 -310.131 14.4766 492.557 -1034.37 193.484C-686.661 546.253 257.032 797.086 1150.4 -669.441Z"/></g><g filter="url(#filter3_f_741_46)"><path fill="#EF6619" d="M1281.1 -723.917C919.665 -351.191 -43.6324 492.297 -1163.02 280.74C-811.11 597.572 197.428 770.16 1281.1 -723.917Z"/></g><g filter="url(#filter4_f_741_46)"><path fill="#CF7154" d="M1150.4 -669.438C843.418 -310.128 40.2622 578.786 -1034.37 193.487C-695.321 462.076 241.242 750.313 1150.4 -669.438Z"/></g><g filter="url(#filter5_f_741_46)"><path fill="#F1F9A0" d="M1150.4 -669.441C843.416 -310.131 85.5307 696.358 -1034.37 193.485C-569.232 472.034 254.653 567.254 1150.4 -669.441Z"/></g></g></g></g><defs><filter id="filter0_f_741_46" width="2735.99" height="1466.76" x="-1289.41" y="-905.753" color-interpolation-filters="sRGB" filterUnits="userSpaceOnUse"><feFlood flood-opacity="0" result="BackgroundImageFix"/><feBlend in="SourceGraphic" in2="BackgroundImageFix" mode="normal" result="shape"/><feGaussianBlur result="effect1_foregroundBlur_741_46" stdDeviation="10.545"/></filter><filter id="filter1_f_741_46" width="2226.95" height="1197.61" x="-1055.47" y="-690.533" color-interpolation-filters="sRGB" filterUnits="userSpaceOnUse"><feFlood flood-opacity="0" result="BackgroundImageFix"/><feBlend in="SourceGraphic" in2="BackgroundImageFix" mode="normal" result="shape"/><feGaussianBlur result="effect1_foregroundBlur_741_46" stdDeviation="10.545"/></filter><filter id="filter2_f_741_46" width="2226.95" height="1176.27" x="-1055.46" y="-690.531" color-interpolation-filters="sRGB" filterUnits="userSpaceOnUse"><feFlood flood-opacity="0" result="BackgroundImageFix"/><feBlend in="SourceGraphic" in2="BackgroundImageFix" mode="normal" result="shape"/><feGaussianBlur result="effect1_foregroundBlur_741_46" stdDeviation="10.545"/></filter><filter id="filter3_f_741_46" width="2533.16" height="1309.03" x="-1207.54" y="-768.441" color-interpolation-filters="sRGB" filterUnits="userSpaceOnUse"><feFlood flood-opacity="0" result="BackgroundImageFix"/><feBlend in="SourceGraphic" in2="BackgroundImageFix" mode="normal" result="shape"/><feGaussianBlur result="effect1_foregroundBlur_741_46" stdDeviation="22.262"/></filter><filter id="filter4_f_741_46" width="2226.95" height="1126.34" x="-1055.46" y="-690.528" color-interpolation-filters="sRGB" filterUnits="userSpaceOnUse"><feFlood flood-opacity="0" result="BackgroundImageFix"/><feBlend in="SourceGraphic" in2="BackgroundImageFix" mode="normal" result="shape"/><feGaussianBlur result="effect1_foregroundBlur_741_46" stdDeviation="10.545"/></filter><filter id="filter5_f_741_46" width="2226.95" height="1081.08" x="-1055.46" y="-690.531" color-interpolation-filters="sRGB" filterUnits="userSpaceOnUse"><feFlood flood-opacity="0" result="BackgroundImageFix"/><feBlend in="SourceGraphic" in2="BackgroundImageFix" mode="normal" result="shape"/><feGaussianBlur result="effect1_foregroundBlur_741_46" stdDeviation="10.545"/></filter><clipPath id="clip0_741_46"><rect width="256" height="256" fill="#fff"/></clipPath></defs></svg>