<svg xmlns="http://www.w3.org/2000/svg" width="256" height="256" fill="none" viewBox="0 0 256 256"><g clip-path="url(#clip0_2648_10386)"><circle cx="128" cy="128" r="128" fill="#F8E5F8"/><path fill="url(#paint0_linear_2648_10386)" d="M139.13 83.7612L130.835 106.744L128.439 113.564L117.84 142.994L117.747 143.368L105.028 178.776L100.696 190.735H69.4509L73.7828 178.776L86.4099 143.368L97.1016 113.564H64.1973L74.981 83.7612H139.13Z"/><path fill="url(#paint1_linear_2648_10386)" d="M97.1037 113.567L86.412 143.37L73.7849 178.779H58.1162L70.8355 143.37H53.5078L64.1994 113.567H97.1037Z"/><path fill="url(#paint2_linear_2648_10386)" d="M192.399 83.7632L202.998 65.2646H162.168L151.66 83.7632L143.181 98.7115L134.701 113.473L134.793 113.566H134.701L117.927 142.996L117.742 143.276L117.834 143.37L137.927 178.779H188.712L163.55 134.494L175.44 113.566L192.399 83.7632Z"/></g><defs><linearGradient id="paint0_linear_2648_10386" x1="75.336" x2="102.344" y1="83.761" y2="190.563" gradientUnits="userSpaceOnUse"><stop stop-color="#9021CC"/><stop offset="1" stop-color="#431068"/></linearGradient><linearGradient id="paint1_linear_2648_10386" x1="63.952" x2="75.608" y1="113.567" y2="178.725" gradientUnits="userSpaceOnUse"><stop stop-color="#FFB25B"/><stop offset="1" stop-color="#FF6D33"/></linearGradient><linearGradient id="paint2_linear_2648_10386" x1="137.363" x2="204.332" y1="178.779" y2="66.057" gradientUnits="userSpaceOnUse"><stop stop-color="#F328A5"/><stop offset="1" stop-color="#F38AB8"/></linearGradient><clipPath id="clip0_2648_10386"><rect width="256" height="256" fill="#fff"/></clipPath></defs></svg>