<svg xmlns="http://www.w3.org/2000/svg" width="256" height="256" fill="none" viewBox="0 0 256 256"><g clip-path="url(#clip0_2553_500)"><path fill="#E9CBC0" d="M256 128C256 57.3075 198.692 0 128 0C57.3075 0 0 57.3075 0 128C0 198.692 57.3075 256 128 256C198.692 256 256 198.692 256 128Z"/><path fill="#BBC2F0" stroke="#000" stroke-linecap="round" stroke-linejoin="round" stroke-width="4" d="M71 85.2563H128.5V27L71 85.2563Z"/><path fill="#C0F3BB" stroke="#000" stroke-linecap="round" stroke-linejoin="round" stroke-width="4" d="M71 85.2563H128.5V176.045L71 85.2563Z"/><path stroke="#000" stroke-linecap="round" stroke-linejoin="round" stroke-width="4" d="M128.5 176.045V183.611C128.5 189.575 131.575 192.69 137.579 192.69H151.197C157.256 192.69 160.276 195.727 160.276 201.769C160.276 207.811 157.162 210.848 151.197 210.848H119.421C113.457 210.848 110.342 213.821 110.342 219.927C110.342 225.905 113.368 229.006 119.421 229.006H152.425"/><path fill="#C0F3BB" stroke="#000" stroke-linecap="round" stroke-linejoin="round" stroke-width="4" d="M186 85.2563H128.5V27L186 85.2563Z"/><path fill="#BBC2F0" stroke="#000" stroke-linecap="round" stroke-linejoin="round" stroke-width="4" d="M186 85.2563H128.5V176.045L186 85.2563Z"/></g><defs><clipPath id="clip0_2553_500"><rect width="256" height="256" fill="#fff"/></clipPath></defs></svg>