<svg xmlns="http://www.w3.org/2000/svg" width="256" height="256" fill="none" viewBox="0 0 256 256"><g clip-path="url(#clip0_741_46)"><path fill="#000" d="M128 256C198.692 256 256 198.692 256 128C256 57.3075 198.692 0 128 0C57.3075 0 0 57.3075 0 128C0 198.692 57.3075 256 128 256Z"/><path fill="url(#paint0_linear_741_46)" d="M127 32L224 90.9992V150L127 90.9992V32Z"/><path fill="url(#paint1_linear_741_46)" d="M127 216L224 157.5V99L127 157.5V216Z"/><path fill="url(#paint2_linear_741_46)" d="M127 32L32 90.9992V150L127 90.9992V32Z"/><path fill="url(#paint3_linear_741_46)" d="M127 216L32 157.5V99L127 157.5V216Z"/></g><defs><linearGradient id="paint0_linear_741_46" x1="306.715" x2="67.518" y1="90.671" y2="90.671" gradientUnits="userSpaceOnUse"><stop stop-color="#996939"/><stop offset="1" stop-color="#D0A875"/></linearGradient><linearGradient id="paint1_linear_741_46" x1="175.5" x2="199.219" y1="216" y2="-7.778" gradientUnits="userSpaceOnUse"><stop stop-color="#272728"/><stop offset="1" stop-color="#4B4B4B"/></linearGradient><linearGradient id="paint2_linear_741_46" x1="127.587" x2="32.143" y1="56.19" y2="131.144" gradientUnits="userSpaceOnUse"><stop stop-color="#996939"/><stop offset="1" stop-color="#D0A875"/></linearGradient><linearGradient id="paint3_linear_741_46" x1="79.5" x2="79.5" y1="216" y2="99" gradientUnits="userSpaceOnUse"><stop stop-color="#363636"/><stop offset="1" stop-color="#333232"/></linearGradient><clipPath id="clip0_741_46"><rect width="256" height="256" fill="#fff"/></clipPath></defs></svg>