<svg xmlns="http://www.w3.org/2000/svg" width="256" height="256" fill="none" viewBox="0 0 256 256"><g clip-path="url(#clip0_1957_3266)"><path fill="#00052D" d="M256 128C256 57.3075 198.692 0 128 0C57.3075 0 0 57.3075 0 128C0 198.692 57.3075 256 128 256C198.692 256 256 198.692 256 128Z"/><path fill="#F9861E" d="M184.001 194.226H119.764L151.887 150.103H184.001V194.226Z"/><path fill="#FFA143" d="M183.999 150.103H151.885V194.226H183.999V150.103Z"/><path fill="#F9861E" d="M103.114 61.8579L71.001 105.98V150.102V194.224H135.228V150.102V105.98V61.8579H103.114Z"/><path fill="#FFA143" d="M135.23 61.8579H103.116V194.224H135.23V61.8579Z"/></g><defs><clipPath id="clip0_1957_3266"><rect width="256" height="256" fill="#fff"/></clipPath></defs></svg>