<svg xmlns="http://www.w3.org/2000/svg" width="256" height="256" fill="none" viewBox="0 0 256 256"><g clip-path="url(#clip0_2560_2001)"><mask id="mask0_2560_2001" width="256" height="256" x="0" y="0" maskUnits="userSpaceOnUse" style="mask-type:luminance"><path fill="#fff" d="M256 0H0V256H256V0Z"/></mask><g mask="url(#mask0_2560_2001)"><path fill="#FFDCE0" d="M127.997 0H128.003C198.693 0 256 57.3066 256 127.998V128.003C256 198.693 198.693 256 128.003 256H127.997C57.3066 256 0 198.693 0 128.003V127.998C0 57.3066 57.3066 0 127.997 0Z"/><path fill="#800010" d="M128.227 34.8159L127.315 37.8745V126.58L128.227 127.465L169.387 103.13L128.227 34.8159Z"/><path fill="#FF596E" d="M128.226 34.8159L87.04 103.13L128.226 127.465V84.4272V34.8159Z"/><path fill="#800010" d="M128.001 139.741L127.488 140.454V182.102L128.001 183.808L169.472 116.736L128.001 139.741Z"/><path fill="#FF596E" d="M128 183.808V139.741L87.04 116.736L128 183.808Z"/><path fill="#FF596E" d="M128.229 127.466L169.39 103.13L128.229 84.4272V127.466Z"/><path fill="#800010" d="M87.04 103.13L128.226 127.466V84.4272L87.04 103.13Z"/><path fill="#FF596E" d="M178.432 194.56L155.136 204.8L207.36 116.736V144.896L178.432 194.56Z"/><path fill="#FF596E" d="M77.5676 194.56L100.864 204.8L48.6396 116.736V144.896L77.5676 194.56Z"/><path fill="#800010" d="M155.136 204.8H128L177.92 124.416L207.36 116.736L155.136 204.8Z"/><path fill="#800010" d="M100.864 204.8H128L78.0797 124.416L48.6396 116.736L100.864 204.8Z"/><path fill="#FF596E" d="M155.136 204.8H128L177.92 124.416L187.392 150.528L155.136 204.8Z"/><path fill="#FF596E" d="M100.864 204.8H128L78.0804 124.416L68.6084 150.528L100.864 204.8Z"/><path fill="#800010" d="M178.432 194.56L155.136 204.8L187.392 150.528L207.36 144.896L178.432 194.56Z"/><path fill="#800010" d="M77.5676 194.56L100.864 204.8L68.6076 150.528L48.6396 144.896L77.5676 194.56Z"/></g></g><defs><clipPath id="clip0_2560_2001"><rect width="256" height="256" fill="#fff"/></clipPath></defs></svg>