<svg xmlns="http://www.w3.org/2000/svg" width="256" height="256" fill="none" viewBox="0 0 256 256"><g clip-path="url(#clip0_2201_1220)"><path fill="#000" d="M256 128C256 57.3075 198.692 0 128 0C57.3075 0 0 57.3075 0 128C0 198.692 57.3075 256 128 256C198.692 256 256 198.692 256 128Z"/><path fill="#BFFF0B" stroke="#BFFF0B" stroke-linejoin="round" stroke-width=".727" d="M163.143 206.428L126.666 171.87L94.0283 206.428H163.143Z"/><path stroke="url(#paint0_linear_2201_1220)" stroke-linejoin="round" stroke-width=".727" d="M205.379 206.428L47.9512 49V206.428M205.379 206.428L69.0695 49L47.9512 206.428M205.379 206.428L88.268 49L47.9512 206.428M205.379 206.428L109.386 49L47.9512 206.428M205.379 206.428L128.585 49L47.9512 206.428M205.379 206.428L147.784 49L47.9512 206.428M205.379 206.428L168.902 49L47.9512 206.428M205.379 206.428L188.1 49L47.9512 206.428M205.379 206.428L207.299 49L47.9512 206.428"/></g><defs><linearGradient id="paint0_linear_2201_1220" x1="127.625" x2="127.625" y1="49" y2="206.428" gradientUnits="userSpaceOnUse"><stop stop-color="#0BC4FF"/><stop offset="1" stop-color="#BFFF0B"/></linearGradient><clipPath id="clip0_2201_1220"><rect width="256" height="256" fill="#fff"/></clipPath></defs></svg>