<svg xmlns="http://www.w3.org/2000/svg" width="256" height="256" fill="none" viewBox="0 0 256 256"><g clip-path="url(#clip0_1773_420)"><path fill="#010101" d="M256 128C256 57.3075 198.692 0 128 0C57.3075 0 0 57.3075 0 128C0 198.692 57.3075 256 128 256C198.692 256 256 198.692 256 128Z"/><path fill="url(#paint0_linear_1773_420)" d="M128.469 44.4446L200.684 86.132V169.528L128.469 211.215L56.2442 169.528V86.132L128.469 44.4446ZM128.469 38.3477L125.864 39.8666L53.6071 81.5961L50.97 83.094V172.576L53.6071 174.095L125.864 215.793L128.511 217.312L131.148 215.793L203.363 174.095L206 172.576V83.094L203.321 81.5961L131.138 39.8666L128.469 38.3477Z"/><path fill="url(#paint1_linear_1773_420)" d="M128.469 58.3369L80.3264 86.132L128.469 113.938L176.612 86.132L128.469 58.3369Z"/><path fill="url(#paint2_linear_1773_420)" d="M68.2798 93.083L128.469 127.829L188.648 93.083V162.576L176.612 169.527V113.937L128.469 141.732L80.3261 113.937V169.527L68.2798 162.576V93.083Z"/><path fill="url(#paint3_linear_1773_420)" d="M80.3264 169.528L104.398 155.625V127.83L80.3264 113.938V169.528Z"/><path fill="url(#paint4_linear_1773_420)" d="M176.612 113.938V169.528L152.541 155.625V127.83L176.612 113.938Z"/><path fill="url(#paint5_linear_1773_420)" d="M128.469 197.323L164.576 176.469L128.469 155.625L92.3621 176.469L128.469 197.323Z"/></g><defs><linearGradient id="paint0_linear_1773_420" x1="128.733" x2="128.174" y1="228.652" y2="19.698" gradientUnits="userSpaceOnUse"><stop stop-color="#1A1E61"/><stop offset=".01" stop-color="#1B2468"/><stop offset=".03" stop-color="#22418A"/><stop offset=".06" stop-color="#275BA7"/><stop offset=".1" stop-color="#2B6FBF"/><stop offset=".13" stop-color="#2F7FD2"/><stop offset=".18" stop-color="#318ADE"/><stop offset=".24" stop-color="#3390E6"/><stop offset=".37" stop-color="#3392E8"/><stop offset=".88" stop-color="#3392E8"/><stop offset=".91" stop-color="#3392E8"/></linearGradient><linearGradient id="paint1_linear_1773_420" x1="128.469" x2="128.469" y1="60.478" y2="108.009" gradientUnits="userSpaceOnUse"><stop offset=".27" stop-color="#3392E8"/><stop offset=".4" stop-color="#3697E9"/><stop offset=".54" stop-color="#3FA4EC"/><stop offset=".69" stop-color="#4EBAF0"/><stop offset=".85" stop-color="#63D9F6"/><stop offset="1" stop-color="#7CFFFE"/></linearGradient><linearGradient id="paint2_linear_1773_420" x1="67.995" x2="186.232" y1="130.519" y2="131.922" gradientUnits="userSpaceOnUse"><stop stop-color="#3392E8"/><stop offset=".1" stop-color="#4BB6EF"/><stop offset=".2" stop-color="#61D6F6"/><stop offset=".31" stop-color="#70EDFA"/><stop offset=".4" stop-color="#79FAFD"/><stop offset=".49" stop-color="#7CFFFE"/><stop offset=".6" stop-color="#7AFCFD"/><stop offset=".69" stop-color="#73F1FB"/><stop offset=".78" stop-color="#67DFF8"/><stop offset=".87" stop-color="#56C6F3"/><stop offset=".95" stop-color="#41A7EC"/><stop offset="1" stop-color="#3392E8"/></linearGradient><linearGradient id="paint3_linear_1773_420" x1="92.478" x2="92.172" y1="169.517" y2="115.921" gradientUnits="userSpaceOnUse"><stop stop-color="#3392E8"/><stop offset=".2" stop-color="#328FE5"/><stop offset=".37" stop-color="#3086DA"/><stop offset=".53" stop-color="#2D77C9"/><stop offset=".68" stop-color="#2962B0"/><stop offset=".83" stop-color="#234690"/><stop offset=".97" stop-color="#1C2569"/><stop offset="1" stop-color="#1A1E61"/></linearGradient><linearGradient id="paint4_linear_1773_420" x1="164.577" x2="164.577" y1="115.056" y2="167.397" gradientUnits="userSpaceOnUse"><stop stop-color="#1A1E61"/><stop offset=".03" stop-color="#1C2569"/><stop offset=".17" stop-color="#234690"/><stop offset=".32" stop-color="#2962B0"/><stop offset=".47" stop-color="#2D77C9"/><stop offset=".63" stop-color="#3086DA"/><stop offset=".8" stop-color="#328FE5"/><stop offset="1" stop-color="#3392E8"/></linearGradient><linearGradient id="paint5_linear_1773_420" x1="128.29" x2="128.649" y1="196.817" y2="155.583" gradientUnits="userSpaceOnUse"><stop stop-color="#3392E8"/><stop offset=".14" stop-color="#328DE2"/><stop offset=".33" stop-color="#2F80D3"/><stop offset=".53" stop-color="#2A69B9"/><stop offset=".75" stop-color="#234A94"/><stop offset=".98" stop-color="#1B2266"/><stop offset="1" stop-color="#1A1E61"/></linearGradient><clipPath id="clip0_1773_420"><rect width="256" height="256" fill="#fff"/></clipPath></defs></svg>