<svg xmlns="http://www.w3.org/2000/svg" width="256" height="256" fill="none" viewBox="0 0 256 256"><g clip-path="url(#clip0_2572_4116)"><path fill="#fff" d="M128 0C57.3076 0 0 57.3076 0 128C0 198.692 57.3076 256 128 256C198.692 256 256 198.692 256 128C256 57.3076 198.692 0 128 0Z"/><mask id="mask0_2572_4116" width="150" height="147" x="42" y="43" maskUnits="userSpaceOnUse" style="mask-type:luminance"><path fill="#fff" d="M147.436 43.2686L42.6665 145.982V189.884L87.1233 189.955L191.289 87.1932V43.4409L147.436 43.2686Z"/></mask><g mask="url(#mask0_2572_4116)"><path fill="url(#paint0_linear_2572_4116)" fill-rule="evenodd" d="M147.436 43.2686L42.6665 145.982V189.884L87.1233 189.955L191.289 87.1932V43.4409L147.436 43.2686Z" clip-rule="evenodd"/></g><mask id="mask1_2572_4116" width="73" height="72" x="119" y="118" maskUnits="userSpaceOnUse" style="mask-type:luminance"><path fill="#fff" d="M119.147 189.955C119.011 190.095 190.74 189.73 190.74 189.73C190.939 189.735 191.095 189.576 191.09 189.369L191.289 118.645C191.073 118.652 119.147 189.955 119.147 189.955Z"/></mask><g mask="url(#mask1_2572_4116)"><path fill="url(#paint1_linear_2572_4116)" fill-rule="evenodd" d="M119.147 189.955C119.011 190.095 190.74 189.73 190.74 189.73C190.939 189.735 191.095 189.576 191.09 189.369L191.289 118.645C191.073 118.652 119.147 189.955 119.147 189.955Z" clip-rule="evenodd"/></g><path fill="#fff" fill-opacity=".4" fill-rule="evenodd" d="M42.667 145.983V189.884L191.289 43.4411L147.437 43.2688L42.667 145.983Z" clip-rule="evenodd"/></g><defs><linearGradient id="paint0_linear_2572_4116" x1="191" x2="44.963" y1="43" y2="192.913" gradientUnits="userSpaceOnUse"><stop stop-color="#FF1C7C"/><stop offset="1" stop-color="#4D7EE9"/></linearGradient><linearGradient id="paint1_linear_2572_4116" x1="155" x2="155.149" y1="190" y2="42" gradientUnits="userSpaceOnUse"><stop stop-color="#4D7EE9"/><stop offset="1" stop-color="#FF1C7C"/></linearGradient><clipPath id="clip0_2572_4116"><rect width="256" height="256" fill="#fff"/></clipPath></defs></svg>