<svg xmlns="http://www.w3.org/2000/svg" width="315" height="315" fill="none" viewBox="0 0 315 315"><g filter="url(#filter0_d_1376_471)"><path fill="url(#paint0_linear_1376_471)" d="M157.502 273.502C228.195 273.502 285.502 216.194 285.502 145.502C285.502 74.8095 228.195 17.502 157.502 17.502C86.81 17.502 29.5024 74.8095 29.5024 145.502C29.5024 216.194 86.81 273.502 157.502 273.502Z"/><path stroke="url(#paint1_radial_1376_471)" stroke-opacity=".5" stroke-width="16" d="M157.502 271.005C226.816 271.005 283.005 214.816 283.005 145.502C283.005 76.1894 226.816 20 157.502 20C88.1894 20 32 76.1894 32 145.502C32 214.816 88.1894 271.005 157.502 271.005Z"/></g><path fill="url(#paint2_linear_1376_471)" stroke="url(#paint3_linear_1376_471)" stroke-linejoin="round" stroke-width="8" d="M208.39 143.339C210.055 144.3 210.055 146.703 208.39 147.665L133.932 190.653C132.267 191.615 130.185 190.413 130.185 188.49V102.513C130.185 100.621 132.202 99.4265 133.853 100.307L133.932 100.35L208.39 143.339Z"/><defs><filter id="filter0_d_1376_471" width="315.005" height="315.005" x="0" y="0" color-interpolation-filters="sRGB" filterUnits="userSpaceOnUse"><feFlood flood-opacity="0" result="BackgroundImageFix"/><feColorMatrix in="SourceAlpha" result="hardAlpha" type="matrix" values="0 0 0 0 0 0 0 0 0 0 0 0 0 0 0 0 0 0 127 0"/><feOffset dy="12"/><feGaussianBlur stdDeviation="12"/><feComposite in2="hardAlpha" operator="out"/><feColorMatrix type="matrix" values="0 0 0 0 0.866667 0 0 0 0 0.141176 0 0 0 0 0.462745 0 0 0 0.4 0"/><feBlend in2="BackgroundImageFix" mode="normal" result="effect1_dropShadow_1376_471"/><feBlend in="SourceGraphic" in2="effect1_dropShadow_1376_471" mode="normal" result="shape"/></filter><linearGradient id="paint0_linear_1376_471" x1="29.502" x2="285.502" y1="17.502" y2="273.502" gradientUnits="userSpaceOnUse"><stop stop-color="#FF632F"/><stop offset="1" stop-color="#DC148C"/></linearGradient><radialGradient id="paint1_radial_1376_471" cx="0" cy="0" r="1" gradientTransform="translate(157.502 145.502) rotate(45) scale(181.019)" gradientUnits="userSpaceOnUse"><stop offset=".68" stop-color="#fff" stop-opacity="0"/><stop offset=".72" stop-color="#fff"/></radialGradient><linearGradient id="paint2_linear_1376_471" x1="157.502" x2="157.502" y1="88.37" y2="202.633" gradientUnits="userSpaceOnUse"><stop stop-color="#fff"/><stop offset="1" stop-color="#fff" stop-opacity=".4"/></linearGradient><linearGradient id="paint3_linear_1376_471" x1="157.502" x2="157.502" y1="88.37" y2="202.633" gradientUnits="userSpaceOnUse"><stop stop-color="#fff" stop-opacity="0"/><stop offset="1" stop-color="#fff" stop-opacity=".5"/></linearGradient></defs></svg>