<svg xmlns="http://www.w3.org/2000/svg" width="256" height="256" fill="none" viewBox="0 0 256 256"><g clip-path="url(#clip0_2435_8489)"><path fill="#fff" d="M256 128C256 57.3076 198.692 0 128 0C57.3076 0 0 57.3076 0 128C0 198.692 57.3076 256 128 256C198.692 256 256 198.692 256 128Z"/><path fill="#45464D" d="M190.246 38.7455L83.9121 34L22 111.338L65.3821 214.694L172.779 221.196L233.913 134.248L190.246 38.7455Z" opacity=".7"/><path fill="#656569" d="M233.912 134.356L173.339 72.9299L157.407 190.765L233.912 134.356Z"/><path fill="url(#paint0_linear_2435_8489)" d="M63.2744 120.541L173.34 72.9299L157.408 190.765L63.2744 120.541Z"/><path fill="url(#paint1_linear_2435_8489)" d="M173.34 72.9302L83.9122 34.1089L63.2744 120.541L173.34 72.9302Z"/><path fill="url(#paint2_linear_2435_8489)" d="M63.2744 120.541L65.3822 214.804L157.408 190.766L63.2744 120.541Z"/><path fill="#757578" d="M173.339 72.9302L190.246 38.8544L83.9121 34.1089L173.339 72.9302Z"/><path fill="#6C6D70" d="M190.245 38.8542L233.913 134.357L173.339 72.93L190.245 38.8542Z"/><path fill="#6C6D70" d="M233.912 134.356L172.779 221.305L157.407 190.765L233.912 134.356Z"/><path fill="#55565A" d="M172.779 221.305L65.3818 214.803L157.408 190.765L172.779 221.305Z"/><path fill="#55565A" d="M83.9121 34.1089L22 111.446L63.2743 120.541L83.9121 34.1089Z"/><path fill="#656569" d="M22 111.446L65.3821 214.803L63.2743 120.541L22 111.446Z"/><path fill="#151A22" d="M162.075 89.1587L150.919 173.635L85.167 122.775L162.075 89.1587Z" opacity=".7"/><path fill="#151A22" d="M153.171 72.3144L91.7086 45.8384L78.7979 101.505L153.171 72.3144Z" opacity=".7"/><path fill="#23262E" d="M137.593 186.433L70.7949 138.715L72.4104 203.376L137.593 186.433Z" opacity=".7"/><path fill="#23262E" d="M222.688 134.146L177.169 87.9363L165.154 176.796L222.688 134.146Z" opacity=".7"/><path fill="#43444B" d="M153.253 196.826L163.168 215.802L96.918 211.558L153.253 196.826Z" opacity=".7"/><path fill="#34363D" d="M213.793 155.111L164.48 191.864L174.279 211.021L213.793 155.111Z" opacity=".7"/><path fill="#34363D" d="M190.467 52.1978L216.54 108.125L180.89 71.869L190.467 52.1978Z" opacity=".7"/><path fill="#36383F" d="M178.535 42.7844L167.571 62.8401L115.931 40.2424L178.535 42.7844Z" opacity=".7"/><path fill="#3B3C43" d="M75.1335 51.8816L60.6009 113.489L31.2832 107.277L75.1335 51.8816Z" opacity=".7"/><path fill="#45464D" d="M58.8338 124.355L60.1131 190.562L29.375 118.116L58.8338 124.355Z" opacity=".7"/></g><defs><linearGradient id="paint0_linear_2435_8489" x1="63.274" x2="173.34" y1="131.848" y2="131.848" gradientUnits="userSpaceOnUse"><stop stop-color="#A3A2A5"/><stop offset=".271" stop-color="#9F9EA0"/><stop offset=".561" stop-color="#929194"/><stop offset=".859" stop-color="#7C7C80"/><stop offset="1" stop-color="#707073"/></linearGradient><linearGradient id="paint1_linear_2435_8489" x1="62.547" x2="140.751" y1="118.961" y2="41.512" gradientUnits="userSpaceOnUse"><stop stop-color="#969598"/><stop offset=".34" stop-color="#908F92"/><stop offset=".792" stop-color="#7F7F82"/><stop offset="1" stop-color="#757578"/></linearGradient><linearGradient id="paint2_linear_2435_8489" x1="68.574" x2="110.35" y1="117.868" y2="200.712" gradientUnits="userSpaceOnUse"><stop stop-color="#9E9EA0"/><stop offset=".276" stop-color="#9B9B9D"/><stop offset=".494" stop-color="#919194"/><stop offset=".692" stop-color="#808083"/><stop offset=".878" stop-color="#69696D"/><stop offset="1" stop-color="#55565A"/></linearGradient><clipPath id="clip0_2435_8489"><rect width="256" height="256" fill="#fff"/></clipPath></defs></svg>