<svg xmlns="http://www.w3.org/2000/svg" width="256" height="256" fill="none" viewBox="0 0 256 256"><path fill="#000" d="M253.563 129.219C253.563 59.199 196.801 2.43701 126.782 2.43701C56.762 2.43701 0 59.199 0 129.219C0 199.238 56.762 256 126.782 256C196.801 256 253.563 199.238 253.563 129.219Z"/><path fill="#fff" d="M84.8737 110.126L122.076 70.4719H81.0678L43.8652 110.126L117.6 196.927L137.903 172.558L84.8737 110.126Z"/><path fill="#fff" d="M165.426 70.4719H92.4961V82.6231H165.426V70.4719Z"/><path fill="#fff" d="M117.592 196.91L128.456 209.715L211.495 110.093L174.98 70.4719H154.191L190.32 109.657L117.592 196.91Z"/></svg>