<svg xmlns="http://www.w3.org/2000/svg" width="256" height="256" fill="none" viewBox="0 0 256 256"><g clip-path="url(#clip0_2573_4277)"><path fill="#fff" d="M128 256C198.692 256 256 198.692 256 128C256 57.3075 198.692 0 128 0C57.3075 0 0 57.3075 0 128C0 198.692 57.3075 256 128 256Z"/><path fill="#DA3A79" d="M127.982 40L126.801 44.0108V160.384L127.982 161.562L182 129.632L127.982 40Z"/><path fill="#E781A9" d="M127.985 40L73.9648 129.632L127.985 161.562V105.078V40Z"/><path fill="#DA397A" d="M127.982 171.789L127.317 172.601V214.054L127.982 215.998L182.033 139.875L127.982 171.789Z"/><path fill="#E781A9" d="M127.985 215.998V171.789L73.9648 139.875L127.985 215.998Z"/><path fill="#671333" d="M127.984 161.562L182.002 129.632L127.984 105.078V161.562Z"/><path fill="#DA3A7A" d="M73.9648 129.632L127.985 161.562V105.078L73.9648 129.632Z"/></g><defs><clipPath id="clip0_2573_4277"><rect width="256" height="256" fill="#fff"/></clipPath></defs></svg>