<svg xmlns="http://www.w3.org/2000/svg" width="269" height="269" fill="none" viewBox="0 0 269 269"><rect width="261.664" height="261.664" x="3.668" y="3.668" fill="#180D68" rx="130.832"/><rect width="261.664" height="261.664" x="3.668" y="3.668" stroke="url(#paint0_linear_5220_24029)" stroke-width="7.336" rx="130.832"/><mask id="mask0_5220_24029" width="112" height="177" x="80" y="46" maskUnits="userSpaceOnUse" style="mask-type:alpha"><path fill="#fff" fill-rule="evenodd" d="M130.588 155.286H129.61H86.5985L134.612 222.598L191.126 143.059H139.391L139.391 155.286H130.588ZM139.391 123.495H181.113L134.612 46.6271L80.5029 135.723H129.61V123.495H139.391Z" clip-rule="evenodd"/></mask><g mask="url(#mask0_5220_24029)"><path fill="#FFBC01" d="M134.624 46.4029L132.931 50.3551V134.725H134.624L196.706 126.094L134.624 46.4029Z"/><path fill="#FFE8A8" d="M134.611 45.9542L80.251 136.035L134.611 168.125V111.358V45.9542Z"/><path fill="#FFBC01" d="M134.483 126.552V179.13L134.483 220.702L134.483 222.821L191.326 142.57L177.906 118.605L134.483 126.552Z"/><path fill="#FFE8A8" d="M134.611 222.821L134.611 146.42H80.251L134.611 222.821Z"/></g><defs><linearGradient id="paint0_linear_5220_24029" x1="134.5" x2="134.5" y1="0" y2="269" gradientUnits="userSpaceOnUse"><stop stop-color="#FFB901"/><stop offset="1" stop-color="#F9CB53"/></linearGradient></defs></svg>