<svg xmlns="http://www.w3.org/2000/svg" width="256" height="256" fill="none" viewBox="0 0 256 256"><g clip-path="url(#clip0_1965_28)"><path fill="#050918" d="M256 128C256 57.3075 198.692 0 128 0C57.3075 0 0 57.3075 0 128C0 198.692 57.3075 256 128 256C198.692 256 256 198.692 256 128Z"/><path fill="#F7FAFC" d="M163.771 153.646L127.641 98.7793V172.077L163.771 153.646Z"/><path fill="#F7FAFC" d="M165.69 155.554L127.637 175.031V172.12L94.1097 153.657L127.637 98.8062V93.8184L91.407 153.101L58.9246 165.595L127.637 53.1303V93.8021L166.486 153.085L202.965 167.1L128.947 46L54 168.62L128.947 209.898L202.169 169.569L165.69 155.554ZM127.637 206.234L58.8748 168.359L92.1863 155.554L127.62 175.081V206.234H127.637Z"/></g><defs><clipPath id="clip0_1965_28"><rect width="256" height="256" fill="#fff"/></clipPath></defs></svg>