<svg xmlns="http://www.w3.org/2000/svg" width="256" height="256" fill="none" viewBox="0 0 256 256"><g clip-path="url(#clip0_1490_145)"><mask id="mask0_1490_145" width="256" height="256" x="0" y="0" maskUnits="userSpaceOnUse" style="mask-type:luminance"><path fill="#fff" d="M256 0H0V256H256V0Z"/></mask><g mask="url(#mask0_1490_145)"><g filter="url(#filter0_d_1490_145)"><path fill="url(#paint0_linear_1490_145)" d="M128 0C153.315 0 178.063 7.5076 199.114 21.5718C220.163 35.636 236.569 55.6278 246.256 79.016C255.944 102.406 258.479 128.142 253.541 152.971C248.601 177.8 236.411 200.608 218.51 218.51C200.608 236.411 177.8 248.601 152.971 253.541C128.142 258.479 102.406 255.944 79.016 246.256C55.6278 236.569 35.636 220.163 21.5718 199.114C7.5076 178.063 0 153.315 0 128C0 94.052 13.485 61.4948 37.4906 37.4906C61.4948 13.485 94.052 0 128 0Z"/></g><path fill="#fff" d="M115.277 140.77C113.385 142.345 111.178 143.605 108.34 144.235C107.079 144.55 106.133 144.55 104.871 144.55C96.6731 144.55 89.4206 137.935 88.79 130.06C88.1593 125.65 89.4206 121.24 92.5739 117.46C94.7811 114.94 97.619 113.05 100.772 112.42V118.09L121.584 104.545L100.772 91V96.355C89.4206 97.93 79.961 104.86 75.5464 115.885C70.5013 128.17 73.0239 141.4 82.4835 150.535C88.4747 156.52 96.6731 159.985 105.187 159.985C113.385 159.985 124.106 156.205 129.151 148.96C132.935 143.605 140.503 128.17 143.341 122.815L115.277 140.77Z"/><path fill="#fff" d="M174.558 105.805C168.567 99.8205 160.368 96.3555 151.854 96.3555C143.656 96.3555 132.935 100.135 127.89 107.38C124.106 112.735 116.538 128.17 113.7 133.525L141.134 115.57C143.025 113.995 145.233 112.735 148.071 112.105C149.332 111.79 150.278 111.79 151.539 111.79C159.738 111.79 166.99 118.405 167.621 126.28C168.251 130.69 166.99 135.1 163.837 138.88C161.629 141.4 158.792 143.29 155.638 143.92V138.25L134.827 151.795L155.638 165.34V159.985C166.99 158.41 176.45 151.48 180.864 140.455C186.225 128.17 183.702 114.94 174.558 105.805Z"/></g></g><defs><filter id="filter0_d_1490_145" width="306" height="306" x="-25" y="-25" color-interpolation-filters="sRGB" filterUnits="userSpaceOnUse"><feFlood flood-opacity="0" result="BackgroundImageFix"/><feColorMatrix in="SourceAlpha" result="hardAlpha" type="matrix" values="0 0 0 0 0 0 0 0 0 0 0 0 0 0 0 0 0 0 127 0"/><feOffset/><feGaussianBlur stdDeviation="12.5"/><feColorMatrix type="matrix" values="0 0 0 0 0 0 0 0 0 0 0 0 0 0 0 0 0 0 0.15 0"/><feBlend in2="BackgroundImageFix" mode="normal" result="effect1_dropShadow_1490_145"/><feBlend in="SourceGraphic" in2="effect1_dropShadow_1490_145" mode="normal" result="shape"/></filter><linearGradient id="paint0_linear_1490_145" x1="315.561" x2="-88.056" y1="-65.891" y2="265.053" gradientUnits="userSpaceOnUse"><stop stop-color="#08C8F6"/></linearGradient><clipPath id="clip0_1490_145"><rect width="256" height="256" fill="#fff"/></clipPath></defs></svg>