<svg xmlns="http://www.w3.org/2000/svg" width="256" height="256" fill="none" viewBox="0 0 256 256"><g clip-path="url(#clip0_1910_5893)"><mask id="mask0_1910_5893" width="256" height="256" x="0" y="0" maskUnits="userSpaceOnUse" style="mask-type:luminance"><path fill="#fff" d="M256 0H0V256H256V0Z"/></mask><g mask="url(#mask0_1910_5893)"><path fill="#7D00FF" d="M256 128C256 57.3075 198.692 0 128 0C57.3075 0 0 57.3075 0 128C0 198.692 57.3075 256 128 256C198.692 256 256 198.692 256 128Z"/><mask id="mask1_1910_5893" width="160" height="107" x="48" y="85" maskUnits="userSpaceOnUse" style="mask-type:luminance"><path fill="#fff" d="M208 85.333H48V192H208V85.333Z"/></mask><g mask="url(#mask1_1910_5893)"><path fill="#fff" d="M208 85.333H154.674V103.107H208V85.333ZM119.113 103.107H101.337V120.893H119.113V103.107ZM101.337 192H119.113V138.667H101.337V192ZM136.887 103.107V120.893H154.674V103.107H136.887ZM136.887 192H154.674V138.667H136.887V192ZM136.887 85.333H119.113V103.107H136.887V85.333ZM48 85.333V103.107H101.337V85.333H48ZM208 138.667V120.893H154.674V138.667H208ZM119.113 120.893V138.667H136.887V120.893H119.113ZM48 120.893V138.667H101.337V120.893H48Z"/></g></g></g><defs><clipPath id="clip0_1910_5893"><rect width="256" height="256" fill="#fff"/></clipPath></defs></svg>