<svg xmlns="http://www.w3.org/2000/svg" width="256" height="256" fill="none" viewBox="0 0 256 256"><g clip-path="url(#clip0_1944_1869)"><mask id="mask0_1944_1869" width="256" height="256" x="0" y="0" maskUnits="userSpaceOnUse" style="mask-type:luminance"><path fill="#fff" d="M256 0H0V256H256V0Z"/></mask><g mask="url(#mask0_1944_1869)"><path fill="#fff" d="M128 256C198.692 256 256 198.692 256 128C256 57.3076 198.692 0 128 0C57.3076 0 0 57.3076 0 128C0 198.692 57.3076 256 128 256Z"/><path fill="#000" d="M167.765 57.4934L164.54 73.5745H141.342L138.125 57.4934H118.716L115.498 73.5745H95.0995L91.8782 57.4934H68.7998L72.9769 99.951H182.993L187.2 57.3867L167.765 57.4934Z"/><path fill="#000" d="M74.2314 108.143L74.7946 116.331L76.945 139.652L77.0346 140.706L77.0389 140.689L80.9386 182.989L127.915 224.213L128 223.74L128.085 224.213L175.07 182.989L181.21 116.326L181.751 108.544L181.892 108.139H74.2314V108.143ZM88.8149 124.885H117.683V197.333L93.1498 174.985L88.8149 124.885ZM139.191 196.54V124.885H167.189L162.846 174.985L139.191 196.54Z"/></g></g><defs><clipPath id="clip0_1944_1869"><rect width="256" height="256" fill="#fff"/></clipPath></defs></svg>