<svg xmlns="http://www.w3.org/2000/svg" width="256" height="256" fill="none" viewBox="0 0 256 256"><g clip-path="url(#clip0_1796_13)"><mask id="mask0_1796_13" width="256" height="256" x="0" y="0" maskUnits="userSpaceOnUse" style="mask-type:luminance"><path fill="#fff" d="M256 0H0V256H256V0Z"/></mask><g mask="url(#mask0_1796_13)"><path fill="#050321" d="M128 0C57.3075 0 0 57.3075 0 128C0 198.693 57.3075 256 128 256C198.693 256 256 198.693 256 128C256 57.3075 198.693 0 128 0Z"/><mask id="mask1_1796_13" width="138" height="224" x="58" y="16" maskUnits="userSpaceOnUse" style="mask-type:luminance"><path fill="#fff" d="M195.836 16H58.2476V240H195.836V16Z"/></mask><g mask="url(#mask1_1796_13)"><path fill="#63B1D8" d="M125.521 169.167L127.021 170.664L195.688 130.075L127.021 16.1406L125.521 21.2385V169.167Z"/><path fill="#69E6F6" d="M127.021 170.665V16.1406L58.3542 130.075L127.021 170.665Z"/><path fill="#63B1D8" d="M126.175 237.391L127.02 239.859L195.728 143.097L127.021 183.665L126.176 184.696L126.175 237.391Z"/><path fill="#69E6F6" d="M58.3542 143.097L127.021 239.86V183.665L58.3542 143.097Z"/><path fill="#025BC2" d="M127.02 98.8643V170.663L195.686 130.075L127.02 98.8643Z"/><path fill="#63B0D7" d="M127.02 98.8643L58.3542 130.075L127.02 170.663V98.8643Z"/></g></g></g><defs><clipPath id="clip0_1796_13"><rect width="256" height="256" fill="#fff"/></clipPath></defs></svg>