<svg xmlns="http://www.w3.org/2000/svg" width="256" height="256" fill="none" viewBox="0 0 256 256"><g clip-path="url(#clip0_776_252)"><mask id="mask0_776_252" width="256" height="256" x="0" y="0" maskUnits="userSpaceOnUse" style="mask-type:luminance"><path fill="#fff" d="M256 128C256 57.3075 198.692 0 128 0C57.3075 0 0 57.3075 0 128C0 198.692 57.3075 256 128 256C198.692 256 256 198.692 256 128Z"/></mask><g mask="url(#mask0_776_252)"><path fill="#4281A4" d="M255.905 128C255.905 162.368 242.364 193.564 220.321 216.558C219.69 217.216 219.05 217.865 218.41 218.505C217.77 219.145 217.157 219.74 216.526 220.352C212.019 224.676 207.201 228.672 202.108 232.302C199.475 234.185 196.76 235.968 193.971 237.65C174.689 249.298 152.078 256 127.905 256C103.731 256 81.1848 249.316 61.9116 237.687C59.1232 236.014 56.3984 234.231 53.7564 232.338C48.6636 228.718 43.8452 224.732 39.3471 220.416C38.0579 219.182 36.7962 217.92 35.5619 216.631C13.4728 193.636 -0.0952148 162.404 -0.0952148 128C-0.0952148 93.5956 14.2316 60.6536 37.3996 37.4948C60.5584 14.3268 92.5584 0 127.905 0C163.251 0 195.251 14.3268 218.41 37.4948C241.578 60.6536 255.905 92.6536 255.905 128Z"/><g opacity=".2"><path fill="#F6E8D7" d="M34.1324 214.229C32.0496 216.312 32.0496 219.689 34.1324 221.772C36.2152 223.854 39.5921 223.854 41.6751 221.772L34.1324 214.229ZM223.675 39.7717L227.446 36.0005L219.904 28.458L216.132 32.2292L223.675 39.7717ZM37.9037 218L41.6751 221.772L223.675 39.7717L219.904 36.0005L216.132 32.2292L34.1324 214.229L37.9037 218Z"/><path fill="#F6E8D7" d="M38.6749 31.2291C36.5921 29.1463 33.2152 29.1463 31.1324 31.2291C29.0496 33.3119 29.0496 36.6888 31.1324 38.7716L38.6749 31.2291ZM216.487 224.126L220.258 227.897L227.8 220.354L224.029 216.583L216.487 224.126ZM34.9037 35.0003L31.1324 38.7716L216.487 224.126L220.258 220.354L224.029 216.583L38.6749 31.2291L34.9037 35.0003Z"/><path stroke="#F6E8D7" stroke-linecap="square" stroke-linejoin="round" stroke-width="2.667" d="M127.904 0V256"/><path stroke="#F6E8D7" stroke-linecap="square" stroke-linejoin="round" stroke-width="2.667" d="M5.99756 88L166.998 249"/><path stroke="#F6E8D7" stroke-linecap="square" stroke-linejoin="round" stroke-width="2.667" d="M-0.0961914 128H255.904"/><path stroke="#F6E8D7" stroke-linecap="round" stroke-linejoin="round" stroke-width="2.667" d="M127.904 210C173.191 210 209.904 173.287 209.904 128C209.904 82.7128 173.191 46 127.904 46C82.6162 46 45.9038 82.7128 45.9038 128C45.9038 173.287 82.6162 210 127.904 210Z"/></g><path stroke="#F6E8D7" stroke-linecap="round" stroke-linejoin="round" stroke-width="2.667" d="M209.904 128C209.904 82.7128 173.191 46 127.904 46V128L185.904 185.966C200.733 171.128 209.904 150.635 209.904 128Z"/><path stroke="#F6E8D7" stroke-linecap="round" stroke-linejoin="round" stroke-width="2.667" d="M127.905 46C82.6176 46 45.9048 82.7128 45.9048 128H127.905V46Z"/><path stroke="#F6E8D7" stroke-linecap="round" stroke-linejoin="round" stroke-width="2.667" d="M127.904 128H45.9038L127.904 210H209.904L127.904 128Z"/><path stroke="#F6E8D7" stroke-linecap="round" stroke-linejoin="round" stroke-width="2.667" d="M45.9038 210H127.904L86.9038 169L45.9038 210Z"/></g><path stroke="url(#paint0_linear_776_252)" stroke-width="1.333" d="M128 2.66699H128C58.7801 2.66699 2.6665 58.7806 2.6665 128V128.001C2.6665 197.22 58.7801 253.334 128 253.334H128C197.22 253.334 253.333 197.22 253.333 128.001V128C253.333 58.7806 197.22 2.66699 128 2.66699Z"/></g><defs><linearGradient id="paint0_linear_776_252" x1="128" x2="128" y1="0" y2="256" gradientUnits="userSpaceOnUse"><stop stop-color="#fff" stop-opacity=".3"/><stop offset="1" stop-opacity=".1"/></linearGradient><clipPath id="clip0_776_252"><rect width="256" height="256" fill="#fff"/></clipPath></defs></svg>