<svg xmlns="http://www.w3.org/2000/svg" width="256" height="256" fill="none" viewBox="0 0 256 256"><g clip-path="url(#clip0_1799_217)"><path fill="#000" d="M128 256C198.692 256 256 198.692 256 128C256 57.3075 198.692 0 128 0C57.3075 0 0 57.3075 0 128C0 198.692 57.3075 256 128 256Z"/><path fill="url(#paint0_linear_1799_217)" d="M207.812 144.84C207.812 144.559 207.953 144.275 207.953 143.993Z"/><mask id="mask0_1799_217" width="161" height="112" x="48" y="89" maskUnits="userSpaceOnUse" style="mask-type:luminance"><path fill="#fff" d="M208.481 89H48V200.281H208.481V89Z"/></mask><g mask="url(#mask0_1799_217)"><path fill="#CDADEF" d="M144.603 186.816C143.533 190.591 141.293 193.931 138.205 196.354C135.111 198.771 131.33 200.146 127.405 200.281H101.25L48 89H101.183L127.781 144.667C127.781 144.667 147.192 177.668 144.603 186.816Z"/><path fill="url(#paint1_linear_1799_217)" d="M144.603 186.817C147.192 177.669 127.789 144.69 127.789 144.69H156.548L144.603 186.817Z"/><path fill="#CDADEF" d="M156.548 144.69H208.481V89.0234H187.738C183.797 89.0256 179.96 90.2795 176.779 92.6042C173.598 94.9328 171.241 98.213 170.05 101.97L156.548 144.69Z"/></g></g><defs><linearGradient id="paint0_linear_1799_217" x1="207.723" x2="208.403" y1="144.442" y2="144.326" gradientUnits="userSpaceOnUse"><stop offset=".041" stop-color="#00FE90"/><stop offset=".418" stop-color="#00A2FF"/></linearGradient><linearGradient id="paint1_linear_1799_217" x1="143.008" x2="130.601" y1="141.742" y2="185.752" gradientUnits="userSpaceOnUse"><stop stop-color="#CDADEF"/><stop offset="1" stop-color="#8458B3"/></linearGradient><clipPath id="clip0_1799_217"><rect width="256" height="256" fill="#fff"/></clipPath></defs></svg>