<svg xmlns="http://www.w3.org/2000/svg" width="256" height="256" fill="none" viewBox="0 0 256 256"><g clip-path="url(#clip0_776_312)"><path fill="#fff" d="M128 256C198.693 256 256 198.693 256 128C256 57.3075 198.693 0 128 0C57.3075 0 0 57.3075 0 128C0 198.693 57.3075 256 128 256Z"/><path fill="#DA3979" d="M131.984 32V102.96L191.96 129.76L131.984 32Z"/><path fill="#E781A9" d="M131.984 32L72 129.76L131.984 102.96V32Z"/><path fill="#DA3979" d="M131.984 175.746V223.962L192 140.93L131.984 175.746Z"/><path fill="#E781A9" d="M131.984 223.962V175.738L72 140.93L131.984 223.962Z"/><path fill="#671334" d="M131.984 164.585L191.96 129.761L131.984 102.977V164.585Z"/><path fill="#DA3979" d="M72 129.761L131.984 164.585V102.977L72 129.761Z"/></g><defs><clipPath id="clip0_776_312"><rect width="256" height="256" fill="#fff"/></clipPath></defs></svg>