<svg xmlns="http://www.w3.org/2000/svg" width="256" height="256" fill="none" viewBox="0 0 256 256"><g clip-path="url(#clip0_2213_10927)"><path fill="#010E35" d="M128 256C198.692 256 256 198.692 256 128C256 57.3076 198.692 0 128 0C57.3076 0 0 57.3076 0 128C0 198.692 57.3076 256 128 256Z"/><path fill="#fff" fill-rule="evenodd" d="M213.549 117.375C213.95 120.755 214.173 124.201 214.173 127.702C214.173 175.205 175.618 213.724 128.048 213.724C93.4108 213.724 63.5598 193.303 49.8808 163.854L63.66 156.928C74.7901 181.352 99.4322 198.328 128.048 198.328C167.092 198.328 198.758 166.711 198.758 127.702C198.758 126.98 198.746 126.257 198.724 125.535L213.549 117.375ZM128.048 41.6807C164.321 41.6807 195.363 64.0809 208.051 95.7973L193.315 100.489C182.652 74.9977 157.443 57.0773 128.048 57.0773C89.0033 57.0773 57.3382 88.6936 57.3382 127.702C57.3382 128.18 57.3491 128.67 57.3603 129.148L42.9357 140.932C42.2679 136.618 41.9229 132.205 41.9229 127.702C41.934 80.1892 80.4888 41.6807 128.048 41.6807Z" clip-rule="evenodd"/><path fill="#fff" fill-rule="evenodd" d="M32.1055 162.097L116.338 93.2842L112.843 121.899L162.005 94.0734L159.512 121.243L224 100.732L136.539 148.846L143.073 121.465L92.5421 151.047L95.8812 130.047L32.1055 162.097Z" clip-rule="evenodd"/></g><defs><clipPath id="clip0_2213_10927"><rect width="256" height="256" fill="#fff"/></clipPath></defs></svg>