<svg xmlns="http://www.w3.org/2000/svg" width="256" height="256" fill="none" viewBox="0 0 256 256"><g clip-path="url(#clip0_2573_4351)"><mask id="mask0_2573_4351" width="256" height="256" x="0" y="0" maskUnits="userSpaceOnUse" style="mask-type:luminance"><path fill="#fff" d="M256 0H0V256H256V0Z"/></mask><g mask="url(#mask0_2573_4351)"><path fill="#075A5A" d="M128 256C198.693 256 256 198.693 256 128C256 57.3075 198.693 0 128 0C57.3075 0 0 57.3075 0 128C0 198.693 57.3075 256 128 256Z"/><g style="mix-blend-mode:screen" opacity=".3"><path fill="#fff" d="M131.982 13.4133V98.1134L203.571 130.105L131.982 13.4133Z" opacity=".8"/><path fill="#fff" d="M131.983 13.4133L60.3813 130.105L131.983 98.1134V13.4133Z"/><path fill="#fff" d="M131.982 184.994V242.548L203.621 143.433L131.982 184.994Z" opacity=".8"/><path fill="#fff" d="M131.983 242.548V184.986L60.3813 143.433L131.983 242.548Z"/><path fill="#fff" d="M131.982 171.674L203.571 130.105L131.982 98.1344V171.674Z" opacity=".5"/><path fill="#fff" fill-opacity=".3" d="M60.3818 130.105L131.983 171.674V98.1344L60.3818 130.105Z"/></g><g style="mix-blend-mode:screen" opacity=".3"><path fill="#fff" d="M131.984 17.6777V96.1833L198.337 125.835L131.984 17.6777Z" opacity=".8"/><path fill="#fff" d="M131.984 17.6777L65.6191 125.835L131.984 96.1833V17.6777Z"/><path fill="#fff" d="M131.986 188.859V236.416L191.181 154.517L131.986 188.859Z" opacity=".8"/><path fill="#fff" d="M131.986 236.416V188.851L72.8213 154.517L131.986 236.416Z"/><path fill="#fff" d="M131.984 168.99L198.337 130.461L131.984 100.829V168.99Z" opacity=".5"/><path fill="#fff" fill-opacity=".3" d="M65.6191 130.461L131.984 168.99V100.829L65.6191 130.461Z"/></g><path fill="#C1DCDC" d="M131.987 38.5494V104.667L187.869 129.639L131.987 38.5494Z"/><path fill="#fff" d="M131.987 38.5494L76.0947 129.639L131.987 104.667V38.5494Z"/><path fill="#C1DCDC" d="M131.987 172.485V217.412L187.908 140.043L131.987 172.485Z"/><path fill="#fff" d="M131.987 217.412V172.478L76.0947 140.043L131.987 217.412Z"/><path fill="#fff" d="M131.987 162.087L187.869 129.639L131.987 104.682V162.087Z" opacity=".5"/><path fill="#fff" fill-opacity=".3" d="M76.0947 129.639L131.987 162.087V104.682L76.0947 129.639Z"/></g></g><defs><clipPath id="clip0_2573_4351"><rect width="256" height="256" fill="#fff"/></clipPath></defs></svg>