<svg xmlns="http://www.w3.org/2000/svg" width="256" height="256" fill="none" viewBox="0 0 256 256"><g clip-path="url(#clip0_776_328)"><path fill="#00A3FF" d="M128 256C198.692 256 256 198.692 256 128C256 57.3076 198.692 0 128 0C57.3076 0 0 57.3076 0 128C0 198.692 57.3076 256 128 256Z"/><path fill="#fff" d="M69.7538 118L68.1627 120.405C59.4603 133.668 55.6622 149.534 57.4196 165.28C59.1769 181.027 66.3804 195.675 77.7946 206.711C91.2118 219.767 109.241 227.053 128 227L69.7538 118Z"/><path fill="#fff" d="M128.101 151.107L70 118L128.101 227V151.107ZM186.274 118L187.861 120.405C196.544 133.667 200.335 149.533 198.582 165.281C196.828 181.028 189.641 195.676 178.253 206.711C164.869 219.767 146.884 227.053 128.172 227L186.274 118Z" opacity=".6"/><path fill="#fff" d="M128 151.051L186 117.919L128 227V151.051ZM128.014 77V134.174L177.965 105.601L128.014 77Z" opacity=".2"/><path fill="#fff" d="M128 77L78 105.514L128 134V77Z" opacity=".6"/><path fill="#fff" d="M128 29L78 106L128 77.1925V29Z"/><path fill="#fff" d="M128 77.2138L178 106L128 29V77.2138Z" opacity=".6"/></g><defs><clipPath id="clip0_776_328"><rect width="256" height="256" fill="#fff"/></clipPath></defs></svg>