<svg xmlns="http://www.w3.org/2000/svg" width="256" height="256" fill="none" viewBox="0 0 256 256"><g clip-path="url(#clip0_741_46)"><path fill="#fff" d="M251 128C251 60.069 195.931 5 128 5C60.069 5 5 60.069 5 128C5 195.931 60.069 251 128 251C195.931 251 251 195.931 251 128Z"/><path fill="#000" fill-rule="evenodd" d="M162.682 145.946C162.682 159.866 151.397 171.151 137.477 171.151H93.3181V84.8489H137.477C151.397 84.8489 162.682 96.1334 162.682 110.054C162.682 117.077 158.649 128 148.164 128C158.649 128 162.682 138.922 162.682 145.946ZM148.164 110.054C148.164 115.956 143.379 120.741 137.477 120.741H107.836V99.3669H137.477C143.379 99.3669 148.164 104.151 148.164 110.054ZM148.164 145.946C148.164 140.043 143.379 135.259 137.477 135.259H107.836V156.632H137.477C143.379 156.632 148.164 151.848 148.164 145.946Z" clip-rule="evenodd"/><path fill="url(#paint0_radial_741_46)" fill-opacity=".2" fill-rule="evenodd" d="M162.682 145.946C162.682 159.866 151.397 171.151 137.477 171.151H93.3181V84.8489H137.477C151.397 84.8489 162.682 96.1334 162.682 110.054C162.682 117.077 158.649 128 148.164 128C158.649 128 162.682 138.922 162.682 145.946ZM148.164 110.054C148.164 115.956 143.379 120.741 137.477 120.741H107.836V99.3669H137.477C143.379 99.3669 148.164 104.151 148.164 110.054ZM148.164 145.946C148.164 140.043 143.379 135.259 137.477 135.259H107.836V156.632H137.477C143.379 156.632 148.164 151.848 148.164 145.946Z" clip-rule="evenodd"/><g filter="url(#filter0_di_741_46)"><path fill="#000" d="M135.259 135.259H120.741V185.669H135.259V135.259Z"/><path fill="url(#paint1_linear_741_46)" fill-opacity=".2" d="M135.259 135.259H120.741V185.669H135.259V135.259Z"/></g><path fill="#000" d="M93.3181 185.669H162.682V200.187H93.3181V185.669Z"/><g filter="url(#filter1_di_741_46)"><path fill="#000" d="M120.741 120.741H135.259V70.3309H120.741V120.741Z"/><path fill="url(#paint2_linear_741_46)" fill-opacity=".2" d="M120.741 120.741H135.259V70.3309H120.741V120.741Z"/></g><path fill="#000" d="M93.3181 55.813H162.682V70.331H93.3181V55.813Z"/><path stroke="#000" stroke-width="10" d="M251 128C251 60.069 195.931 5 128 5C60.069 5 5 60.069 5 128C5 195.931 60.069 251 128 251C195.931 251 251 195.931 251 128Z"/></g><defs><filter id="filter0_di_741_46" width="54.518" height="90.41" x="90.741" y="115.259" color-interpolation-filters="sRGB" filterUnits="userSpaceOnUse"><feFlood flood-opacity="0" result="BackgroundImageFix"/><feColorMatrix in="SourceAlpha" result="hardAlpha" type="matrix" values="0 0 0 0 0 0 0 0 0 0 0 0 0 0 0 0 0 0 127 0"/><feOffset dx="-10"/><feGaussianBlur stdDeviation="10"/><feComposite in2="hardAlpha" operator="out"/><feColorMatrix type="matrix" values="0 0 0 0 0 0 0 0 0 0 0 0 0 0 0 0 0 0 0.25 0"/><feBlend in2="BackgroundImageFix" mode="normal" result="effect1_dropShadow_741_46"/><feBlend in="SourceGraphic" in2="effect1_dropShadow_741_46" mode="normal" result="shape"/><feColorMatrix in="SourceAlpha" result="hardAlpha" type="matrix" values="0 0 0 0 0 0 0 0 0 0 0 0 0 0 0 0 0 0 127 0"/><feOffset dx="10"/><feGaussianBlur stdDeviation="10"/><feComposite in2="hardAlpha" k2="-1" k3="1" operator="arithmetic"/><feColorMatrix type="matrix" values="0 0 0 0 0 0 0 0 0 0 0 0 0 0 0 0 0 0 0.25 0"/><feBlend in2="shape" mode="normal" result="effect2_innerShadow_741_46"/></filter><filter id="filter1_di_741_46" width="54.518" height="90.41" x="90.741" y="50.331" color-interpolation-filters="sRGB" filterUnits="userSpaceOnUse"><feFlood flood-opacity="0" result="BackgroundImageFix"/><feColorMatrix in="SourceAlpha" result="hardAlpha" type="matrix" values="0 0 0 0 0 0 0 0 0 0 0 0 0 0 0 0 0 0 127 0"/><feOffset dx="-10"/><feGaussianBlur stdDeviation="10"/><feComposite in2="hardAlpha" operator="out"/><feColorMatrix type="matrix" values="0 0 0 0 0 0 0 0 0 0 0 0 0 0 0 0 0 0 0.25 0"/><feBlend in2="BackgroundImageFix" mode="normal" result="effect1_dropShadow_741_46"/><feBlend in="SourceGraphic" in2="effect1_dropShadow_741_46" mode="normal" result="shape"/><feColorMatrix in="SourceAlpha" result="hardAlpha" type="matrix" values="0 0 0 0 0 0 0 0 0 0 0 0 0 0 0 0 0 0 127 0"/><feOffset dx="10"/><feGaussianBlur stdDeviation="10"/><feComposite in2="hardAlpha" k2="-1" k3="1" operator="arithmetic"/><feColorMatrix type="matrix" values="0 0 0 0 0 0 0 0 0 0 0 0 0 0 0 0 0 0 0.25 0"/><feBlend in2="shape" mode="normal" result="effect2_innerShadow_741_46"/></filter><radialGradient id="paint0_radial_741_46" cx="0" cy="0" r="1" gradientTransform="translate(124.774 163.597) rotate(176.218) scale(11.3164 13.7964)" gradientUnits="userSpaceOnUse"><stop/><stop offset="1" stop-opacity="0"/></radialGradient><linearGradient id="paint1_linear_741_46" x1="128" x2="128" y1="135.259" y2="156.23" gradientUnits="userSpaceOnUse"><stop stop-color="#fff"/><stop offset="1" stop-color="#fff" stop-opacity="0"/></linearGradient><linearGradient id="paint2_linear_741_46" x1="128" x2="128" y1="120.741" y2="99.77" gradientUnits="userSpaceOnUse"><stop stop-color="#fff"/><stop offset="1" stop-color="#fff" stop-opacity="0"/></linearGradient><clipPath id="clip0_741_46"><rect width="256" height="256" fill="#fff"/></clipPath></defs></svg>