<svg xmlns="http://www.w3.org/2000/svg" width="256" height="256" fill="none" viewBox="0 0 256 256"><path fill="#022471" d="M1.26148 110.188C11.0988 40.1923 75.8164 -8.57578 145.812 1.26146C215.808 11.0987 264.577 75.8162 254.738 145.812C244.902 215.807 180.184 264.576 110.188 254.739C40.1924 244.901 -8.57585 180.184 1.26148 110.188Z"/><path fill="url(#paint0_linear_3003_19)" d="M198.592 87.0987L184.665 63.0249L128.371 160.529L165.97 160.567L198.605 103.832C201.593 98.6485 201.593 92.2693 198.592 87.0857V87.0987Z"/><path fill="url(#paint1_linear_3003_19)" d="M184.664 63.039L80.3012 63C75.2864 63 70.6353 65.6763 68.1279 70.0286L58.2411 87.1518C55.253 92.3355 55.253 98.7147 58.2411 103.885L72.1423 128.05L90.8376 95.5576H165.878"/><path fill="url(#paint2_linear_3003_19)" d="M58.2681 168.948L72.1953 193.022L128.476 95.5444H90.8517L58.2551 152.202C55.267 157.386 55.267 163.765 58.2681 168.948Z"/><path fill="url(#paint3_linear_3003_19)" d="M72.1953 193.021L176.559 193.06C181.573 193.06 186.225 190.383 188.732 186.031L198.619 168.908C201.607 163.724 201.607 157.345 198.619 152.174L184.691 128.049L165.97 160.58L90.9687 160.502"/><defs><linearGradient id="paint0_linear_3003_19" x1="218.015" x2="136.452" y1="69.105" y2="150.681" gradientUnits="userSpaceOnUse"><stop stop-color="#F6A23A"/><stop offset=".92" stop-color="#F15729"/><stop offset="1" stop-color="#F15729"/></linearGradient><linearGradient id="paint1_linear_3003_19" x1="27.282" x2="212.077" y1="102.274" y2="76.524" gradientUnits="userSpaceOnUse"><stop stop-color="#fff"/><stop offset=".04" stop-color="#FCFEFF"/><stop offset=".06" stop-color="#F2FDFF"/><stop offset=".08" stop-color="#E2FCFF"/><stop offset=".1" stop-color="#CCF9FF"/><stop offset=".12" stop-color="#AEF6FF"/><stop offset=".13" stop-color="#8BF3FF"/><stop offset=".15" stop-color="#60EEFF"/><stop offset=".16" stop-color="#30E9FF"/><stop offset=".18" stop-color="#00E5FF"/><stop offset=".83" stop-color="#2A44FF"/></linearGradient><linearGradient id="paint2_linear_3003_19" x1="22.255" x2="156.083" y1="203.546" y2="69.73" gradientUnits="userSpaceOnUse"><stop stop-color="#F6A23A"/><stop offset=".92" stop-color="#F15729"/><stop offset="1" stop-color="#F15729"/></linearGradient><linearGradient id="paint3_linear_3003_19" x1="224.161" x2="43.405" y1="162.399" y2="158.865" gradientUnits="userSpaceOnUse"><stop stop-color="#fff"/><stop offset=".04" stop-color="#FCFEFF"/><stop offset=".06" stop-color="#F2FDFF"/><stop offset=".08" stop-color="#E2FCFF"/><stop offset=".1" stop-color="#CCF9FF"/><stop offset=".12" stop-color="#AEF6FF"/><stop offset=".13" stop-color="#8BF3FF"/><stop offset=".15" stop-color="#60EEFF"/><stop offset=".16" stop-color="#30E9FF"/><stop offset=".18" stop-color="#00E5FF"/><stop offset=".83" stop-color="#2A44FF"/></linearGradient></defs></svg>