<svg xmlns="http://www.w3.org/2000/svg" width="256" height="256" fill="none" viewBox="0 0 256 256"><g clip-path="url(#clip0_2518_635)"><mask id="mask0_2518_635" width="256" height="256" x="0" y="0" maskUnits="userSpaceOnUse" style="mask-type:luminance"><path fill="#fff" d="M256 0H0V256H256V0Z"/></mask><g mask="url(#mask0_2518_635)"><path fill="#000" d="M256 128C256 57.3075 198.692 0 128 0C57.3075 0 0 57.3075 0 128C0 198.692 57.3075 256 128 256C198.692 256 256 198.692 256 128Z"/></g><path stroke="#fff" stroke-width="20" d="M175.254 60.6033L175.254 60.6033C162.512 51.6816 144.951 54.7782 136.029 67.5197L74.4828 155.417C65.5611 168.158 68.6576 185.72 81.3991 194.642L81.3992 194.642C94.1407 203.563 111.702 200.467 120.624 187.725L182.17 99.828C191.092 87.0865 187.995 69.525 175.254 60.6033Z"/></g><defs><clipPath id="clip0_2518_635"><rect width="256" height="256" fill="#fff"/></clipPath></defs></svg>