<svg xmlns="http://www.w3.org/2000/svg" width="256" height="256" fill="none" viewBox="0 0 256 256"><g clip-path="url(#clip0_2287_541)"><path fill="#fff" fill-rule="evenodd" d="M128 0C198.697 0 256 57.3026 256 128C256 198.697 198.697 256 128 256C57.3026 256 0 198.697 0 128C0 57.3026 57.3026 0 128 0Z" clip-rule="evenodd"/><path fill="url(#paint0_linear_2287_541)" d="M164.157 123.937L97.0392 156.96L164.157 188.791V214.459L66.3739 168.093L66.3203 142.826L134.363 109.375L66.3739 77.1419V51.4736L164.157 97.84V123.937Z"/><path fill="url(#paint1_linear_2287_541)" d="M66.374 51.4737L92.2165 41.0107L190 87.3637L164.157 97.84L66.374 51.4737Z"/><path fill="url(#paint2_linear_2287_541)" d="M164.157 123.937L190 113.461V87.3638L164.157 97.8401V123.937Z"/><path fill="url(#paint3_linear_2287_541)" d="M164.157 188.791V137.481L190 125.598V203.983L164.157 214.459V188.791Z"/></g><defs><linearGradient id="paint0_linear_2287_541" x1="164.224" x2="82.584" y1="215.451" y2="77.906" gradientUnits="userSpaceOnUse"><stop stop-color="#05707E"/><stop offset=".52" stop-color="#2B9297"/><stop offset="1" stop-color="#4DBBBA"/></linearGradient><linearGradient id="paint1_linear_2287_541" x1="71.21" x2="187.575" y1="48.995" y2="90.713" gradientUnits="userSpaceOnUse"><stop stop-color="#05707E"/><stop offset=".52" stop-color="#2B9297"/><stop offset="1" stop-color="#4DBBBA"/></linearGradient><linearGradient id="paint2_linear_2287_541" x1="164.157" x2="190" y1="105.65" y2="105.65" gradientUnits="userSpaceOnUse"><stop stop-color="#05707E"/><stop offset=".52" stop-color="#2B9297"/><stop offset="1" stop-color="#4DBBBA"/></linearGradient><linearGradient id="paint3_linear_2287_541" x1="176.764" x2="177.366" y1="120.012" y2="214.218" gradientUnits="userSpaceOnUse"><stop stop-color="#05707E"/><stop offset=".52" stop-color="#2B9297"/><stop offset="1" stop-color="#4DBBBA"/></linearGradient><clipPath id="clip0_2287_541"><rect width="256" height="256" fill="#fff"/></clipPath></defs></svg>