<svg xmlns="http://www.w3.org/2000/svg" width="256" height="256" fill="none" viewBox="0 0 256 256"><g clip-path="url(#clip0_2812_5)"><mask id="mask0_2812_5" width="256" height="256" x="0" y="0" maskUnits="userSpaceOnUse" style="mask-type:luminance"><path fill="#fff" d="M256 0H0V256H256V0Z"/></mask><g mask="url(#mask0_2812_5)"><path fill="#54FFF5" d="M256 0H0V256H256V0Z"/><g filter="url(#filter0_f_2812_5)"><path fill="#fff" d="M13.4808 198.603C-29.3273 319.041 199.662 285.025 319.507 252.962C442.165 212.256 357.386 32.8245 269.415 28.8534C181.443 24.8823 280.323 111.822 205.596 136.653C130.869 161.485 66.9912 48.056 13.4808 198.603Z"/></g><g filter="url(#filter1_f_2812_5)"><path fill="#00FFF0" fill-opacity=".67" d="M85.5123 -45.8236C63.0563 -107.177 -16.9186 -23.9964 -54.0992 25.2632C-89.5647 78.8469 3.00969 125.151 39.3211 100.036C75.6328 74.9219 7.77477 70.0354 29.3711 37.3775C50.9673 4.7197 113.582 30.8685 85.5123 -45.8236Z"/></g><g filter="url(#filter2_f_2812_5)"><path fill="#9D81FF" d="M96.4801 225.422C65.8511 122.362 -66.0809 176.636 -128.218 216.656C-187.989 264.041 -46.0703 400.347 12.8732 393.374C71.8166 386.402 -34.411 327.064 1.98775 298.169C38.3865 269.274 134.767 354.248 96.4801 225.422Z"/></g><g filter="url(#filter3_f_2812_5)"><path fill="#4D94FF" d="M282.12 -107.353C216.047 -186.031 121.462 -120.97 82.4293 -78.6047C48.2736 -30.6448 224.274 57.2308 273.121 42.1712C321.968 27.1114 206.511 -4.05055 227.297 -33.2881C248.082 -62.5257 364.711 -9.00582 282.12 -107.353Z"/></g><path fill="#000" fill-rule="evenodd" d="M93.1894 152.836H136.674L87.2089 103.051L137.31 53.2665L150.956 40H105.82L48.3364 97.7775C45.4354 100.689 45.4503 105.402 48.3661 108.299L93.1894 152.836ZM119.33 103.168H118.996L119.327 103.164L119.33 103.168ZM119.33 103.168L168.792 152.949L118.691 202.734L105.045 216.001H150.181L207.664 158.227C210.565 155.315 210.55 150.603 207.634 147.705L162.811 103.168H119.33Z" clip-rule="evenodd"/></g></g><defs><filter id="filter0_f_2812_5" width="766.481" height="648.355" x="-188.702" y="-168.201" color-interpolation-filters="sRGB" filterUnits="userSpaceOnUse"><feFlood flood-opacity="0" result="BackgroundImageFix"/><feBlend in="SourceGraphic" in2="BackgroundImageFix" mode="normal" result="shape"/><feGaussianBlur result="effect1_foregroundBlur_2812_5" stdDeviation="98.462"/></filter><filter id="filter1_f_2812_5" width="548.52" height="568.431" x="-258.972" y="-264.45" color-interpolation-filters="sRGB" filterUnits="userSpaceOnUse"><feFlood flood-opacity="0" result="BackgroundImageFix"/><feBlend in="SourceGraphic" in2="BackgroundImageFix" mode="normal" result="shape"/><feGaussianBlur result="effect1_foregroundBlur_2812_5" stdDeviation="98.462"/></filter><filter id="filter2_f_2812_5" width="641.774" height="621.375" x="-339.538" y="-30.82" color-interpolation-filters="sRGB" filterUnits="userSpaceOnUse"><feFlood flood-opacity="0" result="BackgroundImageFix"/><feBlend in="SourceGraphic" in2="BackgroundImageFix" mode="normal" result="shape"/><feGaussianBlur result="effect1_foregroundBlur_2812_5" stdDeviation="98.462"/></filter><filter id="filter3_f_2812_5" width="627.114" height="582.028" x="-118.859" y="-341.221" color-interpolation-filters="sRGB" filterUnits="userSpaceOnUse"><feFlood flood-opacity="0" result="BackgroundImageFix"/><feBlend in="SourceGraphic" in2="BackgroundImageFix" mode="normal" result="shape"/><feGaussianBlur result="effect1_foregroundBlur_2812_5" stdDeviation="98.462"/></filter><clipPath id="clip0_2812_5"><rect width="256" height="256" fill="#fff"/></clipPath></defs></svg>