<svg xmlns="http://www.w3.org/2000/svg" width="170" height="170" fill="none" viewBox="0 0 170 170"><rect width="170" height="170" fill="#BC8EE4"/><path fill="#E6FA36" stroke="#000" stroke-linecap="round" stroke-linejoin="round" stroke-width="3" d="M63.3617 26.2182L146 62.5957L109.638 145.27L27 108.892L63.3617 26.2182Z"/><path fill="#E6FA36" d="M101.064 105.366C94.7959 113.668 83.3779 116.7 73.6373 112.078C64.2499 107.603 59.3943 97.4168 61.3071 87.6426"/><path stroke="#000" stroke-linecap="round" stroke-linejoin="round" stroke-width="3" d="M101.064 105.366C94.7959 113.668 83.3779 116.7 73.6373 112.078C64.2499 107.603 59.3943 97.4168 61.3071 87.6426"/><path fill="#E6FA36" d="M110.3 85.2581C108.535 87.7016 105.268 88.6732 102.414 87.3778C99.5592 86.0824 98.2055 83.2267 98.6763 80.4004"/><path stroke="#000" stroke-linecap="round" stroke-linejoin="round" stroke-width="3" d="M110.3 85.2581C108.535 87.7016 105.268 88.6732 102.414 87.3778C99.5592 86.0824 98.2055 83.2267 98.6763 80.4004"/><path fill="#E6FA36" d="M84.9075 75.221C83.1418 77.6645 79.8753 78.6361 77.0208 77.3407C74.2841 76.1042 72.8127 73.1896 73.2835 70.3633"/><path stroke="#000" stroke-linecap="round" stroke-linejoin="round" stroke-width="3" d="M84.9075 75.221C83.1418 77.6645 79.8753 78.6361 77.0208 77.3407C74.2841 76.1042 72.8127 73.1896 73.2835 70.3633"/><path fill="#E6FA36" d="M58.158 86.7578C60.3651 87.4349 62.7193 87.6116 65.0146 87.2583Z"/><path stroke="#000" stroke-linecap="round" stroke-linejoin="round" stroke-width="3" d="M58.158 86.7578C60.3651 87.4349 62.7193 87.6116 65.0146 87.2583"/><circle cx="77" cy="71.818" r="14" fill="#000"/><path stroke="#000" stroke-width="3" d="M52.9999 50.2172L71.9999 67.2171M87.4999 73.2171L139 76.717"/></svg>