<svg xmlns="http://www.w3.org/2000/svg" width="310" height="310" fill="none" viewBox="0 0 310 310"><path fill="#10151B" stroke="#F5C09A" stroke-linecap="round" stroke-linejoin="round" stroke-width="11.66" d="M155 5.83008C237.384 5.83009 304.17 72.6157 304.17 155C304.17 237.384 237.384 304.17 155 304.17C72.6157 304.17 5.83008 237.384 5.83008 155C5.83008 72.6157 72.6157 5.83008 155 5.83008Z"/><path stroke="#F5C09A" stroke-linecap="round" stroke-linejoin="round" stroke-width="11.66" d="M155 197.6V302.9"/><path stroke="#F5C09A" stroke-linecap="round" stroke-linejoin="round" stroke-width="11.66" d="M155 6.5V37.7"/><path stroke="#F5C09A" stroke-linecap="round" stroke-linejoin="round" stroke-width="10.69" d="M155 197.599L54 117.699L155 37.6992L256 117.699L210.9 153.399"/><path stroke="#F5C09A" stroke-linecap="round" stroke-linejoin="round" stroke-width="10.69" d="M240.5 204.599L256 192.299V117.699"/><path stroke="#F5C09A" stroke-linecap="round" stroke-linejoin="round" stroke-width="10.69" d="M54 117.699V192.299L155 272.199L200.6 236.199"/><path stroke="#F5C09A" stroke-linecap="round" stroke-linejoin="round" stroke-width="10.69" d="M71.7 206.301L54.5 236.201H109.4"/><path stroke="#F5C09A" stroke-linecap="round" stroke-linejoin="round" stroke-width="10.69" d="M156.9 236.2H255.5L155 62.0996L102.5 153.1"/></svg>