<svg xmlns="http://www.w3.org/2000/svg" width="256" height="256" fill="none" viewBox="0 0 256 256"><g clip-path="url(#clip0_741_46)"><path fill="#2B2B2B" d="M256 128C256 198.692 198.692 256 128 256C57.3075 256 0 198.692 0 128C0 57.3075 57.3075 0 128 0C198.692 0 256 57.3075 256 128Z"/><path fill="url(#paint0_linear_741_46)" d="M179 39H77L128.02 128L179 39Z"/><path fill="url(#paint1_linear_741_46)" d="M178.98 39L128 127.52L178.98 216L230 127.52L178.98 39Z"/><path fill="url(#paint2_linear_741_46)" d="M76.98 39L26 127.52L76.98 216L128 127.52L76.98 39Z"/><path fill="url(#paint3_linear_741_46)" d="M128.02 128L77 216H179L128.02 128Z"/></g><defs><linearGradient id="paint0_linear_741_46" x1="128.012" x2="128.012" y1="129.381" y2="34.909" gradientUnits="userSpaceOnUse"><stop stop-color="#74C5EE"/><stop offset=".32" stop-color="#73C2EF"/><stop offset=".53" stop-color="#6EB9F1"/><stop offset=".72" stop-color="#66AAF5"/><stop offset=".88" stop-color="#5A95FA"/><stop offset="1" stop-color="#4F80FF"/></linearGradient><linearGradient id="paint1_linear_741_46" x1="127.883" x2="231.355" y1="127.506" y2="127.506" gradientUnits="userSpaceOnUse"><stop stop-color="#96D4C8"/><stop offset="1" stop-color="#42C0C6"/></linearGradient><linearGradient id="paint2_linear_741_46" x1="25.987" x2="127.992" y1="127.506" y2="127.506" gradientUnits="userSpaceOnUse"><stop stop-color="#4F80FF"/><stop offset=".28" stop-color="#4E7FFC"/><stop offset=".48" stop-color="#4A7CF3"/><stop offset=".64" stop-color="#4477E4"/><stop offset=".79" stop-color="#3C6FCE"/><stop offset=".93" stop-color="#3166B3"/><stop offset="1" stop-color="#2B60A3"/></linearGradient><linearGradient id="paint3_linear_741_46" x1="128.012" x2="128.012" y1="123.576" y2="216.216" gradientUnits="userSpaceOnUse"><stop stop-color="#74C5EE"/><stop offset=".32" stop-color="#73C2EF"/><stop offset=".53" stop-color="#6EB9F1"/><stop offset=".72" stop-color="#66AAF5"/><stop offset=".88" stop-color="#5A95FA"/><stop offset="1" stop-color="#4F80FF"/></linearGradient><clipPath id="clip0_741_46"><rect width="256" height="256" fill="#fff"/></clipPath></defs></svg>