<svg xmlns="http://www.w3.org/2000/svg" width="256" height="256" fill="none" viewBox="0 0 256 256"><circle cx="127" cy="128" r="125" fill="#fff"/><g clip-path="url(#clip0_741_46)"><path fill="#C2A633" d="M130 85.375H112.14V120.586H140.239V135.329H112.14V170.538H130.875C135.689 170.538 170.395 171.081 170.341 129.573C170.288 88.0638 136.68 85.375 130 85.375Z"/><path fill="#C2A633" d="M127 3C57.9638 3 2 58.9638 2 128C2 197.036 57.9638 253 127 253C196.036 253 252 197.036 252 128C252 58.9638 196.036 3 127 3ZM131.911 195.512H86.6425V135.33H70.685V120.588H86.6413V60.4012H125.494C134.685 60.4012 195.564 58.4925 195.564 129.086C195.564 200.848 131.913 195.512 131.913 195.512H131.911Z"/></g><defs><clipPath id="clip0_741_46"><rect width="250" height="250" fill="#fff" transform="translate(2 3)"/></clipPath></defs></svg>