<svg xmlns="http://www.w3.org/2000/svg" width="256" height="256" fill="none" viewBox="0 0 256 256"><g clip-path="url(#clip0_741_46)"><path fill="#6366F1" fill-rule="evenodd" d="M128 256C198.692 256 256 198.692 256 128C256 57.3075 198.692 0 128 0V256Z" clip-rule="evenodd"/><path fill="#10B981" fill-rule="evenodd" d="M128 256C57.3075 256 0 198.692 0 128C0 57.3075 57.3075 0 128 0V256Z" clip-rule="evenodd"/><path fill="#fff" fill-opacity=".602" d="M127.859 31.803V102.911L187.96 129.767L127.859 31.803Z"/><path fill="#fff" d="M127.859 31.803L67.7501 129.767L127.859 102.911V31.803Z"/><path fill="#fff" fill-opacity=".602" d="M127.859 175.846V224.163L188 140.958L127.859 175.846Z"/><path fill="#fff" d="M127.859 224.163V175.838L67.7501 140.958L127.859 224.163Z"/><path fill="#fff" fill-opacity=".2" d="M127.859 164.663L187.96 129.767L127.859 102.927V164.663Z"/><path fill="#fff" fill-opacity=".602" d="M67.7501 129.767L127.859 164.663V102.927L67.7501 129.767Z"/></g><defs><clipPath id="clip0_741_46"><rect width="256" height="256" fill="#fff"/></clipPath></defs></svg>