<svg xmlns="http://www.w3.org/2000/svg" xml:space="preserve" id="Capa_1" width="800" height="800" viewBox="0 0 473.677 473.677"><path d="M236.835 0v473.677c130.807 0 236.842-106.036 236.842-236.835C473.677 106.032 367.641 0 236.835 0" style="fill:#0051bb"/><path d="M236.835 0C106.036 0 0 106.032 0 236.842c0 130.799 106.036 236.835 236.835 236.835 130.806 0 130.806-473.677 0-473.677" style="fill:#0051bb"/><path d="m236.431 41.075 5.777 17.778h18.698L245.78 69.84l5.777 17.778-15.126-10.994-15.123 10.994 5.778-17.778-15.131-10.987h18.698zm0 335.612 5.777 17.786h18.698L245.78 405.46l5.777 17.777-15.126-10.986-15.123 10.986 5.778-17.777-15.131-10.987h18.698zM328.54 70.82l5.774 17.782h18.698l-15.127 10.994 5.778 17.778-15.123-10.994-15.126 10.994 5.777-17.778-15.123-10.994h18.698zm62.844 62.002 5.774 17.778h18.698l-15.127 10.991 5.778 17.778-15.123-10.987-15.127 10.987 5.778-17.778-15.127-10.991h18.694zm1.496 156.651 5.774 17.785h18.697l-15.126 10.987 5.781 17.774-15.126-10.983-15.127 10.983 5.778-17.774-15.127-10.987h18.698zM83.755 132.822l5.774 17.778h18.694L93.1 161.591l5.774 17.778-15.119-10.987-15.126 10.987 5.777-17.778L59.283 150.6h18.698zm322.194 74.709 5.774 17.778h18.698l-15.126 10.987 5.777 17.782-15.123-10.983-15.126 10.983 5.781-17.782-15.13-10.987h18.694zm-336.479 0 5.774 17.778h18.694l-15.126 10.987 5.781 17.782-15.123-10.983-15.127 10.983 5.778-17.782-15.126-10.987h18.697zm12.258 81.942 5.774 17.785h18.694l-15.122 10.987 5.773 17.774-15.119-10.983-15.126 10.983 5.777-17.774-15.126-10.987h18.698zm249.523 64.646 5.774 17.778h18.698l-15.13 10.994 5.781 17.778-15.123-10.987-15.13 10.987 5.782-17.778-15.127-10.994h18.698zM147.306 70.82l5.773 17.782h18.698l-15.126 10.994 5.781 17.778-15.126-10.994-15.123 10.994 5.777-17.778-15.126-10.994h18.694zm-6.821 282.162 5.777 17.786h18.698l-15.126 10.983 5.777 17.778-15.126-10.98-15.123 10.98 5.777-17.778-15.126-10.983h18.694z" style="fill:#fef900"/></svg>