<svg xmlns="http://www.w3.org/2000/svg" width="256" height="256" fill="none" viewBox="0 0 256 256"><g clip-path="url(#clip0_1425_2038)"><mask id="mask0_1425_2038" width="256" height="256" x="0" y="0" maskUnits="userSpaceOnUse" style="mask-type:luminance"><path fill="#fff" d="M256 0H0V256H256V0Z"/></mask><g mask="url(#mask0_1425_2038)"><g filter="url(#filter0_d_1425_2038)"><path fill="url(#paint0_linear_1425_2038)" d="M128.5 256C198.916 256 256 198.916 256 128.5C256 58.0837 198.916 1 128.5 1C58.0837 1 1 58.0837 1 128.5C1 198.916 58.0837 256 128.5 256Z"/></g><path fill="#fff" d="M82.2963 50.8032L66.7412 66.3665V128.516L82.2963 144.044H144.551V175.1H113.441V159.585H66.7412V190.676L82.2963 206.204H175.697L191.252 190.676V128.527L175.697 112.964H113.441V81.9053H144.551V97.4332H191.257V66.3775L175.702 50.8142L82.2963 50.8032Z"/></g></g><defs><filter id="filter0_d_1425_2038" width="261" height="261" x="-2" y="1" color-interpolation-filters="sRGB" filterUnits="userSpaceOnUse"><feFlood flood-opacity="0" result="BackgroundImageFix"/><feColorMatrix in="SourceAlpha" result="hardAlpha" type="matrix" values="0 0 0 0 0 0 0 0 0 0 0 0 0 0 0 0 0 0 127 0"/><feOffset dy="3"/><feGaussianBlur stdDeviation="1.5"/><feColorMatrix type="matrix" values="0 0 0 0 0 0 0 0 0 0 0 0 0 0 0 0 0 0 0.18 0"/><feBlend in2="BackgroundImageFix" mode="normal" result="effect1_dropShadow_1425_2038"/><feBlend in="SourceGraphic" in2="effect1_dropShadow_1425_2038" mode="normal" result="shape"/></filter><linearGradient id="paint0_linear_1425_2038" x1="128.5" x2="128.5" y1="1" y2="256" gradientUnits="userSpaceOnUse"><stop stop-color="#00ADEF"/></linearGradient><clipPath id="clip0_1425_2038"><rect width="256" height="256" fill="#fff"/></clipPath></defs></svg>