<svg xmlns="http://www.w3.org/2000/svg" width="256" height="256" fill="none" viewBox="0 0 256 256"><g clip-path="url(#clip0_2087_9268)"><mask id="mask0_2087_9268" width="256" height="256" x="0" y="0" maskUnits="userSpaceOnUse" style="mask-type:luminance"><path fill="#fff" d="M256 0H0V256H256V0Z"/></mask><g mask="url(#mask0_2087_9268)"><path fill="#0C192B" d="M128 256C198.692 256 256 198.692 256 128C256 57.3076 198.692 0 128 0C57.3076 0 0 57.3076 0 128C0 198.692 57.3076 256 128 256Z"/><mask id="mask1_2087_9268" width="206" height="206" x="25" y="25" maskUnits="userSpaceOnUse" style="mask-type:luminance"><path fill="#fff" d="M230.4 25.6001H25.5996V230.4H230.4V25.6001Z"/></mask><g mask="url(#mask1_2087_9268)"><mask id="mask2_2087_9268" width="206" height="206" x="25" y="25" maskUnits="userSpaceOnUse" style="mask-type:luminance"><path fill="#fff" d="M230.4 25.6001H25.5996V230.4H230.4V25.6001Z"/></mask><g mask="url(#mask2_2087_9268)"><path fill="url(#paint0_linear_2087_9268)" d="M68.2651 45.2266L226.985 153.6L187.732 211.626L29.0117 102.4L68.2651 45.2266Z"/><path fill="url(#paint1_linear_2087_9268)" d="M226.988 153.6C213.335 173.227 167.255 165.547 123.735 134.827C79.3617 104.96 55.4684 64.8535 68.2684 45.2268C81.9217 25.6001 128.002 33.2801 171.522 64.0001C215.895 93.0137 239.788 133.974 226.988 153.6Z"/><path fill="url(#paint2_linear_2087_9268)" d="M187.733 210.773C174.08 230.4 128 222.72 84.4802 192C40.9602 161.28 16.2135 122.027 29.8669 101.547C43.5202 81.9197 89.5999 89.6002 133.12 120.32C176.64 151.04 200.533 191.147 187.733 210.773Z"/><path fill="#0E0F23" d="M226.986 153.6L187.733 211.627C174.079 231.254 127.999 222.72 84.4793 192.854C75.9459 186.88 68.2659 180.907 60.5859 174.08C66.5593 173.227 74.2393 169.814 81.9193 161.28C95.5726 146.774 102.399 143.36 108.373 144.214C114.346 144.214 121.173 150.187 132.266 164.694C143.359 179.2 158.719 183.467 168.106 175.787C168.959 174.934 169.813 174.934 170.666 174.08C178.346 168.107 180.906 165.547 195.413 138.24C198.826 131.414 210.773 120.32 226.986 125.44C231.253 136.534 231.253 145.92 226.986 153.6Z"/><path fill="#fff" fill-rule="evenodd" d="M221.016 150.187C209.069 167.253 167.256 158.72 127.149 130.56C86.1888 102.4 62.2952 66.5603 74.2419 49.4937C86.1888 32.427 128.002 40.9603 168.109 69.1203C208.216 97.2801 232.109 133.12 221.016 150.187ZM183.469 124.587C177.496 133.12 157.016 128.853 136.536 115.2C116.909 101.547 104.962 83.627 110.936 75.0937C116.909 66.5603 137.389 70.827 157.869 84.4803C177.496 98.1334 189.442 116.053 183.469 124.587Z" clip-rule="evenodd"/><path fill="#fff" d="M64.8547 64.8528C64.8547 63.9995 64.0014 63.1461 63.1481 63.9995C62.2947 64.8528 61.4414 64.8528 61.4414 65.7061C62.2947 68.2661 63.1481 69.9728 63.1481 71.6795C63.1481 72.5328 64.0014 73.3861 64.8547 72.5328C65.7081 72.5328 66.5614 71.6795 65.7081 70.8261C65.7081 69.1195 65.7081 67.4128 64.8547 64.8528Z"/><path fill="#fff" d="M69.1225 78.5071C69.1225 77.6538 68.2692 76.8004 67.4158 77.6538C66.5625 78.5071 66.5625 78.5071 66.5625 79.3604C75.9492 100.694 95.5759 123.734 121.176 140.8C122.029 141.654 122.883 140.8 123.736 140.8C124.589 139.947 123.736 139.094 123.736 138.24C97.2826 121.174 78.5092 98.9869 69.1225 78.5071Z"/><path fill="#fff" d="M172.373 162.134C171.519 162.134 170.666 162.134 170.666 162.987C170.666 163.84 170.666 164.694 171.519 164.694C174.079 165.547 177.493 166.4 180.053 167.254C180.906 167.254 181.759 167.254 181.759 166.4C181.759 165.547 181.759 164.694 180.906 164.694C178.346 163.84 174.933 162.987 172.373 162.134Z"/><path fill="#fff" d="M187.734 165.547C186.881 165.547 186.027 166.4 186.027 167.254C186.027 168.107 186.881 168.96 187.734 168.96C194.561 169.814 202.241 170.667 208.214 169.814C209.067 169.814 209.921 168.96 209.921 168.107C209.921 167.254 209.067 166.4 208.214 166.4C201.387 167.254 194.561 166.4 187.734 165.547Z"/></g></g></g></g><defs><linearGradient id="paint0_linear_2087_9268" x1="99.362" x2="130.838" y1="29.818" y2="137.903" gradientUnits="userSpaceOnUse"><stop stop-color="#03B8FF"/><stop offset="1" stop-color="#FA52A0"/></linearGradient><linearGradient id="paint1_linear_2087_9268" x1="125.286" x2="156.763" y1="22.269" y2="130.355" gradientUnits="userSpaceOnUse"><stop stop-color="#03B8FF"/><stop offset="1" stop-color="#FA52A0"/></linearGradient><linearGradient id="paint2_linear_2087_9268" x1="73.523" x2="105" y1="37.343" y2="145.429" gradientUnits="userSpaceOnUse"><stop stop-color="#03B8FF"/><stop offset="1" stop-color="#FA52A0"/></linearGradient><clipPath id="clip0_2087_9268"><rect width="256" height="256" fill="#fff"/></clipPath></defs></svg>