<svg xmlns="http://www.w3.org/2000/svg" width="256" height="256" fill="none" viewBox="0 0 256 256"><g clip-path="url(#clip0_1492_181)"><mask id="mask0_1492_181" width="256" height="256" x="0" y="0" maskUnits="userSpaceOnUse" style="mask-type:luminance"><path fill="#fff" d="M256 0H0V256H256V0Z"/></mask><g mask="url(#mask0_1492_181)"><path fill="url(#paint0_linear_1492_181)" d="M256 128C256 57.3077 198.692 0 128 0C57.3077 0 0 57.3077 0 128C0 198.692 57.3077 256 128 256C198.692 256 256 198.692 256 128Z"/><path fill="#fff" d="M117.152 161.817L85.2489 193.72H151.047L190.3 154.467V66.1104H101.944L62.6909 105.363V171.162L94.5936 139.258V118.578L115.16 98.012H158.398V141.25L137.832 161.816L117.152 161.817Z"/></g></g><defs><linearGradient id="paint0_linear_1492_181" x1="256" x2="0" y1="0" y2="256" gradientUnits="userSpaceOnUse"><stop stop-color="#ED00C9"/></linearGradient><clipPath id="clip0_1492_181"><rect width="256" height="256" fill="#fff"/></clipPath></defs></svg>