<svg xmlns="http://www.w3.org/2000/svg" width="256" height="256" fill="none" viewBox="0 0 256 256"><g clip-path="url(#clip0_1239_2)"><rect width="256" height="256" fill="#1C1C21"/><path fill="url(#paint0_radial_1239_2)" d="M127.85 148.644L76.0587 119.06L74.6443 121.23C58.6925 145.7 62.2551 177.748 83.2094 198.279C107.868 222.44 147.847 222.44 172.505 198.279C193.459 177.748 197.022 145.7 181.07 121.23L179.655 119.06L127.85 148.644Z"/><path fill="url(#paint1_radial_1239_2)" d="M127.917 82.561L83.2715 108.089L127.917 133.585L172.53 108.089L127.917 82.561Z" opacity=".6"/><path fill="url(#paint2_diamond_1239_2)" d="M127.975 89.2212L76.0974 119.072L127.859 148.669L179.67 119.062L127.975 89.2212Z"/><path fill="url(#paint3_linear_1239_2)" d="M127.917 39.6343L83.2715 108.09L127.917 133.586V39.6343Z"/><path fill="url(#paint4_linear_1239_2)" d="M127.914 133.59L172.563 108.09L127.916 39.6006L127.914 133.59Z"/></g><defs><radialGradient id="paint0_radial_1239_2" cx="0" cy="0" r="1" gradientTransform="translate(127.801 216.444) rotate(-90) scale(84.0438 109.841)" gradientUnits="userSpaceOnUse"><stop offset=".204" stop-color="#56F2FF"/><stop offset="1" stop-color="#4A8CEA"/></radialGradient><radialGradient id="paint1_radial_1239_2" cx="0" cy="0" r="1" gradientTransform="translate(127.901 108.073) rotate(90.1607) scale(25.4431 48.1694)" gradientUnits="userSpaceOnUse"><stop stop-color="#EEFF83"/><stop offset=".69" stop-color="#5699EC"/></radialGradient><radialGradient id="paint2_diamond_1239_2" cx="0" cy="0" r="1" gradientTransform="translate(127.884 118.945) rotate(90.16) scale(29.6436 55.8944)" gradientUnits="userSpaceOnUse"><stop stop-color="#56F2FF"/><stop offset="1" stop-color="#5699EC"/></radialGradient><linearGradient id="paint3_linear_1239_2" x1="105.594" x2="105.594" y1="39.634" y2="133.586" gradientUnits="userSpaceOnUse"><stop offset=".377" stop-color="#FFE336"/><stop offset="1" stop-color="#13C0B6" stop-opacity=".7"/></linearGradient><linearGradient id="paint4_linear_1239_2" x1="150.238" x2="150.238" y1="39.601" y2="133.59" gradientUnits="userSpaceOnUse"><stop offset=".409" stop-color="#FF7F72"/><stop offset="1" stop-color="#2978EF" stop-opacity=".7"/></linearGradient><clipPath id="clip0_1239_2"><rect width="256" height="256" fill="#fff"/></clipPath></defs></svg>