<svg xmlns="http://www.w3.org/2000/svg" width="256" height="256" fill="none" viewBox="0 0 256 256"><g clip-path="url(#clip0_2615_121)"><mask id="mask0_2615_121" width="256" height="256" x="0" y="0" maskUnits="userSpaceOnUse" style="mask-type:luminance"><path fill="#fff" d="M256 0H0V256H256V0Z"/></mask><g mask="url(#mask0_2615_121)"><path fill="#000" d="M256 0H0V256H256V0Z"/></g><path fill="#95001A" d="M173.995 146.639L129.774 124.688L128.013 125.779L126.672 124.481L82.0308 146.639L80.2695 149.483L81.3435 151.983L124.052 173.178H128.013H131.973L174.673 151.983L175.755 149.483L173.995 146.639Z"/><path fill="#40004D" d="M80.2691 149.483L128.012 173.178V175.145L97.0741 190.508H93.1048L80.2691 184.047L78.5078 181.417V152.318L80.2691 149.483Z"/><path fill="#520033" d="M175.755 149.483L128.029 173.178V175.145L158.967 190.508H162.936L175.772 184.047L177.533 181.417V152.318L175.755 149.483Z"/><path fill="#FFA80A" d="M175.771 102.359L174.01 103.459V146.639L175.754 149.483L177.532 152.318L206.392 166.641H210.351L216.039 163.78L175.771 102.359Z"/><path fill="#FF3417" d="M80.2683 102.359L82.0296 103.459V146.639L80.2683 149.483L78.5071 152.318L49.6482 166.641H45.6876L40 163.78L80.2683 102.359Z"/><path fill="#6D0044" d="M80.2683 184.047L45.6875 166.64L80.2683 149.483V184.047Z"/><path fill="#6D0074" d="M128.011 208.069L162.909 190.507L128.011 173.178L93.1035 190.507L128.011 208.069Z"/><path fill="#6D0044" d="M175.772 184.047L210.352 166.64L175.754 149.483L175.772 184.047Z"/><path fill="#FFA80A" d="M128.021 48H115.916L80.2695 102.358L82.0308 103.458L128.013 80.6305V78.6631L129.774 77.4345L129.782 49.5379L128.021 48Z"/><path fill="#D7001F" d="M128.013 78.6631L80.2695 102.358V149.483L128.013 125.779L129.774 124.688V81.4982L128.013 78.6631Z"/><path fill="#FFE50A" d="M128.02 48H140.126L175.772 102.358L174.011 103.458L129.773 81.4983L128.012 78.6631L128.02 48Z"/><path fill="#EF8109" d="M175.755 149.483L128.012 125.779V78.6631L175.755 102.358V149.483Z"/></g><defs><clipPath id="clip0_2615_121"><rect width="256" height="256" fill="#fff"/></clipPath></defs></svg>