<svg xmlns="http://www.w3.org/2000/svg" width="256" height="256" fill="none" viewBox="0 0 256 256"><g clip-path="url(#clip0_1033_4)"><path fill="#201E1D" d="M256 0H0V256H256V0Z"/><path fill="url(#paint0_linear_1033_4)" d="M142.648 63.59L128.044 49L113.352 63.6775L127.978 78.2675L142.669 63.59H142.648ZM196.978 79.5362L182.461 64.7056L141.496 104.67C134.041 111.932 121.937 111.932 114.504 104.67L73.5172 64.6837L59 79.5362V197H79.6891V99.7041L99.9653 119.478C107.68 127.025 117.851 130.787 128 130.787C138.149 130.787 148.298 127.025 156.035 119.478L175.92 100.076V196.978H197V79.5362H196.978Z"/></g><defs><linearGradient id="paint0_linear_1033_4" x1="165.477" x2="50.126" y1="60.376" y2="90.731" gradientUnits="userSpaceOnUse"><stop offset=".372" stop-color="#FF97D6"/><stop offset=".802" stop-color="#F8B994"/></linearGradient><clipPath id="clip0_1033_4"><rect width="256" height="256" fill="#fff"/></clipPath></defs></svg>